<?xml version="1.0" encoding="UTF-8"?>
<svg width="60px" height="60px" viewBox="0 0 60 60" version="1.1" xmlns="http://www.w3.org/2000/svg" xmlns:xlink="http://www.w3.org/1999/xlink">
    <title>ic_flight_details</title>
    <g id="Página-1" stroke="none" stroke-width="1" fill="none" fill-rule="evenodd">
        <g id="Aviónica-Saltamontes----Web-Quote---3" transform="translate(-407, -123)">
            <g id="ic_flight_details" transform="translate(407, 123)">
                <rect id="Rectángulo-Copia-5" fill="#000E25" x="0" y="0" width="60" height="60" rx="30"></rect>
                <g id="airplane" transform="translate(15, 15)">
                    <path d="M12.4506837,16.1625743 C12.4506837,15.6250743 12.0506836,15.362574 11.5631837,15.575074 L5.30068338,18.2750738 C4.31318335,18.7000738 3.51318359,18.1750734 3.51318359,17.1125734 L3.51318359,15.4625738 C3.51318359,14.6125738 4.15068373,13.6250743 4.93818372,13.3000743 L12.0631832,10.2375728 C12.2631832,10.1375728 12.4381834,9.87507306 12.4381834,9.65007305 L12.4381834,5.82507312 C12.4381834,4.62507315 13.3256845,3.18757324 14.3881845,2.63757325 C14.7631846,2.45007324 15.2131834,2.45007324 15.5881834,2.63757325 C16.6631834,3.18757324 17.550683,4.61257346 17.550683,5.81257343 L17.550683,9.63757336 C17.550683,9.86257337 17.7256845,10.1250737 17.9256845,10.2250737 L19.2256832,10.7750732 L12.4506837,17.5500739 L12.4506837,16.1625743 Z" id="Vector" fill="#FFFFFF" fill-rule="nonzero"></path>
                    <path d="M26.486479,17.1126461 C26.486479,18.1751461 25.6864787,18.7001465 24.6989787,18.2751465 L18.4364784,15.5751467 C17.9364784,15.3751467 17.5489783,15.625147 17.5489783,16.162647 L17.5489783,19.8001468 C17.5489783,20.0876468 17.7114786,20.500146 17.9239786,20.700146 L20.8239782,23.6126459 C21.1239782,23.9126459 21.2614779,24.5126473 21.1239779,24.9251473 L20.5614793,26.6251457 C20.3114793,27.3626456 19.4739781,27.7001459 18.786478,27.3626459 L15.8114779,24.8626459 C15.3614779,24.4751459 14.6239786,24.4751459 14.1739786,24.8626459 L11.1989786,27.3626459 C10.5114786,27.7126459 9.67397846,27.3626456 9.44897845,26.6251457 L8.88647869,24.9251473 C8.74897869,24.5001473 8.88647841,23.9126459 9.18647841,23.6126459 L12.0864788,20.700146 C12.2864788,20.500146 12.4489787,20.0876468 12.4489787,19.8001468 L12.4489787,17.5501466 L19.2239785,10.7751465 L25.0614774,13.2876468 C25.8489774,13.6251468 26.486479,14.6126465 26.486479,15.4626465 L26.486479,17.1126461 Z" id="Vector" fill="#FFFFFF" fill-rule="nonzero" opacity="0.400000006"></path>
                    <path d="M30,0 L30,30 L0,30 L0,0 L30,0 Z" id="Vector" opacity="0"></path>
                </g>
            </g>
        </g>
    </g>
</svg>