<?xml version="1.0" encoding="UTF-8"?>
<svg width="35px" height="35px" viewBox="0 0 35 35" version="1.1" xmlns="http://www.w3.org/2000/svg" xmlns:xlink="http://www.w3.org/1999/xlink">
    <title>ic_instagram</title>
    <g id="Página-1" stroke="none" stroke-width="1" fill="none" fill-rule="evenodd">
        <g id="Aviónica-Saltamontes----Web-A" transform="translate(-1086, -3022)">
            <g id="ic_instagram" transform="translate(1086, 3022)">
                <g id="ic_bar_instagram-copia" transform="translate(10.0007, 10.0007)" fill="#000E25">
                    <g id="ic_instagram-copia-2" transform="translate(0, 0)">
                        <path d="M8.59947409,0.000537121517 C9.2558115,0.00276725644 9.62030892,0.00792873346 9.94743617,0.0181256048 L10.211909,0.0276347817 C10.3303348,0.0323983998 10.4529961,0.0379037338 10.5921288,0.0442519554 C11.3904746,0.0806649088 11.9357162,0.207470116 12.4128063,0.392899285 C12.9060336,0.58455111 13.3243211,0.841019777 13.7413283,1.25799722 C14.1583057,1.67500444 14.4147744,2.09329191 14.606456,2.58651921 C14.7918554,3.06360929 14.9186606,3.60885084 14.9550735,4.40719666 C14.9630088,4.58111255 14.9696271,4.72929185 14.9751259,4.87563321 L14.9811999,5.05189015 C14.9941777,5.46823561 14.998999,5.94511792 15.0000016,7.00716075 L15.0000016,7.9921874 C14.998999,9.05421512 14.9941777,9.5310924 14.9811999,9.94743617 L14.9751259,10.1236926 C14.9696271,10.2700336 14.9630088,10.4182129 14.9550735,10.5921288 C14.9186606,11.3904746 14.7918554,11.9357162 14.606456,12.4128063 C14.4147744,12.9060336 14.1583057,13.3243211 13.7413283,13.7413283 C13.3243211,14.1583057 12.9060336,14.4147744 12.4128063,14.606456 C11.9357162,14.7918554 11.3904746,14.9186606 10.5921288,14.9550735 C10.4182129,14.9630088 10.2700336,14.9696271 10.1236926,14.9751259 L9.94743617,14.9811999 C9.5310924,14.9941777 9.05421512,14.998999 7.9921874,15.0000016 L7.00716075,15.0000016 C5.94511792,14.998999 5.46823561,14.9941777 5.05189015,14.9811999 L4.87563321,14.9751259 C4.72929185,14.9696271 4.58111255,14.9630088 4.40719666,14.9550735 C3.60885084,14.9186606 3.06360929,14.7918554 2.58651921,14.606456 C2.09329191,14.4147744 1.67500444,14.1583057 1.25799722,13.7413283 C0.841019777,13.3243211 0.58455111,12.9060336 0.392899285,12.4128063 C0.207470116,11.9357162 0.0806649088,11.3904746 0.0442519554,10.5921288 C0.0379037338,10.4529961 0.0323983998,10.3303348 0.0276347817,10.211909 L0.0181256048,9.94743617 C0.00792873346,9.62030892 0.00276725644,9.2558115 0.000537121517,8.59947409 L0.000537121517,6.39986567 C0.00276725644,5.74351954 0.00792873346,5.37901873 0.0181256048,5.05189015 L0.0276347817,4.78741665 C0.0323983998,4.66899067 0.0379037338,4.54632937 0.0442519554,4.40719666 C0.0806649088,3.60885084 0.207470116,3.06360929 0.392899285,2.58651921 C0.58455111,2.09329191 0.841019777,1.67500444 1.25799722,1.25799722 C1.67500444,0.841019777 2.09329191,0.58455111 2.58651921,0.392899285 C3.06360929,0.207470116 3.60885084,0.0806649088 4.40719666,0.0442519554 C4.54632937,0.0379037338 4.66899067,0.0323983998 4.78741665,0.0276347817 L5.05189015,0.0181256048 C5.37901873,0.00792873346 5.74351954,0.00276725644 6.39986567,0.000537121517 Z M7.49967763,3.64803273 C5.37245254,3.64803273 3.64803273,5.37245254 3.64803273,7.49967763 C3.64803273,9.62687295 5.37245254,11.3512928 7.49967763,11.3512928 C9.62687295,11.3512928 11.3512928,9.62687295 11.3512928,7.49967763 C11.3512928,5.37245254 9.62687295,3.64803273 7.49967763,3.64803273 Z M7.49967763,4.99948029 C8.88048183,4.99948029 9.9998452,6.11884365 9.9998452,7.49967763 C9.9998452,8.88048183 8.88048183,9.9998452 7.49967763,9.9998452 C6.11884365,9.9998452 4.99948029,8.88048183 4.99948029,7.49967763 C4.99948029,6.11884365 6.11884365,4.99948029 7.49967763,4.99948029 Z M11.503465,2.59577876 C11.0063969,2.59577876 10.603413,2.99876267 10.603413,3.49586052 C10.603413,3.99295837 11.0063969,4.39591251 11.503465,4.39591251 C12.0005628,4.39591251 12.4035467,3.99295837 12.4035467,3.49586052 C12.4035467,2.99876267 12.0005628,2.59577876 11.503465,2.59577876 Z" id="Instagram-Copia"></path>
                    </g>
                </g>
                <circle id="Oval-Copy" stroke="#000E25" stroke-width="0.5" cx="17.5" cy="17.5" r="17.25"></circle>
            </g>
        </g>
    </g>
</svg>