<?xml version="1.0" encoding="UTF-8"?>
<svg width="469px" height="138px" viewBox="0 0 469 138" version="1.1" xmlns="http://www.w3.org/2000/svg" xmlns:xlink="http://www.w3.org/1999/xlink">
    <title>ic_logo_saltamontes</title>
    <g id="Página-1" stroke="none" stroke-width="1" fill="none" fill-rule="evenodd">
        <g id="Grupo-Copia-4" transform="translate(-725.000000, -3736.000000)">
            <g transform="translate(725.000000, 3736.000000)">
                <g id="Grupo" transform="translate(238.000000, 0.000000)">
                    <path d="M181.482106,47.1531038 C181.170693,47.1948971 176.249739,45.894883 175.0825,45.6493257 C174.432383,45.5124136 173.164794,45.4310815 172.830409,45.2069411 C173.510406,44.8567272 173.899198,45.4131329 174.303362,44.5585381 C174.141264,44.2183823 173.834774,43.9618131 173.476899,43.8231669 C172.996393,43.6370914 172.611055,43.7162558 172.104037,43.7415746 C171.446062,43.7740034 171.289405,43.6626702 170.718998,43.6102986 C170.106535,43.5542851 169.889599,43.7766914 169.282749,43.692151 L164.792126,43.4451197 C164.307215,43.4476342 163.849681,43.3160981 163.345599,43.2713567 C161.598972,43.1164961 159.339196,42.9533115 157.642312,42.6154101 C157.118194,42.5109269 154.167626,41.8298349 153.71985,41.8760503 C153.047194,41.9453301 153.471911,41.9802734 152.902455,41.4882051 C152.31374,41.6629219 152.668247,42.0006498 151.760001,41.7676652 C149.992043,41.3139219 151.656714,41.948018 149.608001,41.1081636 C149.257898,40.9649219 148.82679,40.8887055 148.384196,40.8329522 L144.569252,40.1206453 C144.057916,39.9987338 143.562902,40.0753837 143.371183,39.6946485 C143.850048,39.2905889 147.753597,38.7567273 148.71055,38.5687442 C149.64125,38.3858768 150.488007,38.2241663 151.391072,38.0125119 L157.150493,37.2068204 C157.64473,37.1443906 158.031535,37.0173633 158.548313,36.9883161 C159.118892,36.9561474 159.682648,37.0185772 160.225938,36.9438348 C162.066092,36.6914276 164.284157,36.5188785 165.893731,36.0248159 C166.058506,36.1926828 166.07241,36.1971049 166.179928,36.43824 C166.849475,36.150716 168.387543,36.0079078 169.100098,36.0273305 C170.401454,36.063401 170.109644,37.1161238 171.380428,38.7073904 C171.944185,39.4132808 171.592441,39.0779807 172.218118,39.5926798 C172.533677,39.8521971 172.694997,40.2219204 173.004942,40.531815 C173.349345,40.8763929 173.66689,40.9258165 174.010084,41.2517522 C174.465632,41.6845989 174.25975,41.6024863 174.973859,41.9020627 C176.337653,42.4742493 175.077405,43.333353 176.642676,43.6870352 C177.10971,43.7926456 177.610337,44.3100327 178.093607,44.7254511 C179.013252,45.515882 179.59074,45.8477138 180.674038,46.4682835 C180.977074,46.6421332 181.575375,46.8409548 181.482106,47.1531038" id="Fill-2" fill="#CBDC58"></path>
                    <path d="M169.663682,35.812728 C169.170136,35.7512519 169.176008,35.6409593 168.816406,35.5450601 L165.770323,35.5801769 C164.495912,35.7496045 163.003614,35.7635645 161.746129,35.9911732 C159.280471,36.4372862 156.311335,36.5129824 153.997929,37.0731166 C152.764452,37.3714791 151.316198,37.1267022 150.273576,37.6514594 C149.796438,37.8915541 147.790818,37.984245 146.465023,38.2602368 L142.919521,39.1365087 C142.333484,39.3677591 141.928629,39.0659283 141.193275,39.1256701 C140.551363,39.1777817 139.729131,39.1015653 139.379029,38.7221308 C139.438962,38.1799452 139.757457,38.1159546 140.326914,38.1965931 C141.456845,38.3563961 142.321998,37.565445 144.151876,37.6895243 C144.563639,37.7176177 144.932827,37.5610229 145.338632,37.4496897 C145.861281,37.3061012 147.032406,37.3255238 147.919581,37.0144152 C148.308372,36.8781968 148.550698,36.576366 148.892424,36.3831804 C149.848081,37.3938497 149.476734,36.784292 150.636633,36.6189397 C151.480972,36.4985021 152.29854,36.5048318 153.082428,36.2829459 C152.956084,36.1769886 153.305927,35.9727044 152.125994,36.271327 C151.659651,36.3895968 151.566814,36.3755501 151.126465,36.2342159 C151.367323,35.5800035 151.901285,35.7308755 152.683878,35.532314 C153.420441,35.3452847 153.641522,35.1670129 154.506933,35.2113207 C155.141159,35.2437496 155.73212,34.9713995 156.406071,34.9485086 C157.461129,34.9128715 157.27606,35.0997275 158.419291,34.8064807 C160.753683,34.2075013 160.605057,34.5917048 161.102058,34.5547672 C161.36131,34.5356047 161.714263,34.359674 162.017558,34.3087764 C162.820791,34.1730782 163.185747,34.2153918 163.946577,33.9722623 C164.975986,33.6432052 164.664572,34.0735374 165.872659,33.9260469 L165.929743,34.2276176 C165.955219,34.3751081 165.924303,34.3921028 165.980437,34.4891292 C166.721144,34.4206298 167.302346,34.2558845 168.131227,34.1709105 C168.769685,34.1052725 169.271263,33.4268685 170.151787,33.6692176 L169.663682,35.812728 Z" id="Fill-3" fill="#CBDC58"></path>
                    <path d="M139.628263,40.7449435 C139.604946,41.4864709 139.511677,42.1823032 139.255361,42.8004451 C137.203021,42.7062802 137.556751,42.9474153 136.803952,42.9306807 C136.38338,42.4430344 136.506529,42.4494508 136.353759,41.6641358 C136.133714,40.5335492 135.714869,40.3632545 138.208681,40.4716396 C139.425058,40.5244448 138.796446,40.3570982 139.628263,40.7449435" id="Fill-4" fill="#C1C7C3"></path>
                    <path d="M208.664111,32.5639498 C201.629846,27.2276746 192.009883,24.2000887 178.06839,27.77645 C158.252357,24.2907854 137.669796,23.3127183 107.576602,26.0716825 C95.8739863,26.5780577 95.7998033,32.7957204 101.446611,33.6517893 C110.877274,35.305399 117.258744,36.7440594 126.689148,38.3979293 C120.002136,42.2769018 116.111368,43.5289664 120.230299,48.7735911 C115.511081,50.1624811 113.05285,51.7938068 110.980819,52.1506972 C108.517406,52.5009112 106.053734,52.8516453 103.59032,53.2018593 C98.2069098,54.2273557 103.644468,60.7131198 109.810644,58.3048897 C111.560293,57.5763684 109.352678,55.8632769 113.401139,56.2043865 C140.220173,56.7667751 163.479543,52.4048386 185.987583,48.9692045 C194.420963,50.7870393 202.78819,51.4366562 210.811965,45.9671975 C218.305578,59.1167374 228.274521,58.0266435 230.591813,50.526048 C233.066971,40.3344674 223.921037,24.3189655 213.017595,27.0448073 C210.74685,28.1271842 209.400242,30.0632888 208.664111,32.5639498" id="Fill-5" fill="#FFFFFF"></path>
                    <path d="M178.277208,46.4280509 C159.07243,44.7514635 144.374684,41.9018893 139.379029,38.7221308 C148.98837,35.9476457 159.664599,34.0563692 170.654833,33.6040998 C168.853109,37.7800475 171.928813,42.9677917 178.277208,46.4280509 Z" id="Fill-6" fill="#FFFFFF"></path>
                    <path d="M172.180465,0.656158046 C184.219453,-2.02737021 200.871435,3.28627412 217.972833,20.9350094 C221.734407,25.2891422 218.487192,27.9492592 214.287861,22.8511712 C204.486628,12.5114065 192.063081,1.34531384 172.315359,1.28114986 C171.684242,1.23302688 171.631562,0.824285006 172.180465,0.656158046" id="Fill-7" fill="#FFFFFF"></path>
                    <path d="M144.107314,20.5191575 C123.406353,19.0132116 120.348093,19.7706933 92.2825415,19.9988223 C77.7689143,20.4879426 80.0281729,25.08217 88.1503116,24.8014959 C103.878935,22.7784231 126.729996,22.0661163 145.154599,21.8235071 C146.399907,21.8070325 145.895307,20.6491329 144.107314,20.5191575" id="Fill-8" fill="#FFFFFF"></path>
                    <path d="M163.53585,67.2640884 C173.922429,64.023374 182.076434,59.6753975 189.837071,55.132588 C193.01822,53.2719194 193.027029,55.6233557 189.543534,57.8986623 C178.03825,64.5852423 166.601968,69.8050685 153.560257,75.1046662 C147.02757,77.2174819 143.959207,73.6060905 146.031928,71.0045014 C147.332334,69.4800867 147.365151,70.8461724 152.069428,70.1916131 C156.195008,69.6172588 159.241782,68.5345351 163.53585,67.2640884" id="Fill-9" fill="#FFFFFF"></path>
                    <path d="M105.841029,46.0288469 C111.304927,45.3966583 111.853744,45.9302598 116.780656,47.1504159 C110.730635,49.7404728 111.511068,49.9931402 104.469377,50.531684 C101.662252,50.5257879 100.654174,51.3747467 99.4402141,52.3713693 C94.9204878,53.3717204 91.0380105,49.9115479 94.2632034,46.6467287 C95.7624095,45.9681513 97.1210218,45.5986882 99.1249145,45.9052012 C102.45348,46.658521 102.346048,46.999197 105.841029,46.0288469" id="Fill-10" fill="#FFFFFF"></path>
                    <path d="M26.7027263,63.4787606 C61.6194598,54.7134411 74.7781882,52.4443775 82.1187708,51.9125102 C87.671792,51.7989226 84.9664851,53.7627738 82.7708736,53.9011599 C53.0730353,58.7099898 27.7529478,67.736474 4.11091748,80.0961033 C-1.630109,83.1428517 -1.30772789,79.5595537 4.76284758,74.7256652 C8.05954641,71.9930601 7.99227213,71.1742758 11.288971,68.4416707 C15.7541178,64.2541909 19.2241408,65.2432699 26.7027263,63.4787606" id="Fill-11" fill="#FFFFFF"></path>
                    <path d="M42.916778,73.2944617 C59.7812915,65.9653748 76.6403645,60.7993943 93.4962421,56.8326732 C97.358943,56.2484342 97.088205,57.6766897 94.0174234,58.7114638 C73.7813371,65.5477887 54.3127302,73.7973685 35.8709413,83.9360572 C30.2680041,87.3475864 22.9857144,91.5733912 17.3829499,94.9849205 C10.9158966,98.3900333 15.8779578,92.4818317 19.422941,88.2702471 C21.1402056,84.7898716 19.1198181,84.9046731 28.0907873,80.2544322 L42.916778,73.2944617 Z" id="Fill-12" fill="#FFFFFF"></path>
                    <path d="M152.804523,63.5091951 C163.537577,62.8940013 171.360824,59.8096216 179.441424,56.5541669 C182.804016,55.459911 182.334736,57.6678454 178.604252,59.0894243 C166.951293,64.3878948 155.47019,67.8269105 141.348205,67.8665361 C135.788534,67.450424 133.910986,64.0327385 136.383898,62.0162555 C138.642639,60.1763101 137.914626,63.0453936 144.283056,63.9005087 C148.246884,64.4328963 148.517881,63.822298 152.804523,63.5091951" id="Fill-13" fill="#FFFFFF"></path>
                    <path d="M227.626045,47.5863841 C227.533467,46.1635046 226.903645,47.0427245 226.736712,47.5713836 C224.240914,51.8030846 219.675417,49.6358162 214.671212,44.1876876 C213.959866,43.3584116 212.776996,42.9302471 213.364761,44.0057741 C218.815446,54.5401984 227.106591,55.1527043 227.626045,47.5863841" id="Fill-14" fill="#FFFFFF"></path>
                </g>
                <path d="M0,135.72628 L0,138 L1.80166304,138 C3.01076341,136.984213 4.9205728,135.776687 5.88957792,134.659218 C5.63197572,134.051464 4.92298755,133.076888 4.33896275,132.631202 C3.17341414,133.061098 1.28464758,134.968864 0,135.72628 Z M151.119694,62.2897182 L156.197657,63.439896 C156.555299,62.2328904 156.996595,61.6219261 156.708118,60.803779 C155.717553,60.3952259 152.58036,59.5945175 151.471731,59.7285618 L151.119694,62.2897182 Z M33.147202,111.530553 C33.6009165,112.539398 33.9683899,112.680297 34.3588034,113.707796 C35.662769,113.285275 37.7448019,111.450907 38.9777048,110.696615 C38.5545197,109.857472 38.0159439,109.191762 37.5759418,108.467923 C36.1572755,109.102486 34.3810536,110.529168 33.147202,111.530553 Z M6.5989973,130.704348 C6.96647067,131.67233 7.49547364,132.241389 8.16729189,132.930524 C9.01210981,132.511213 11.8051144,130.489617 12.4064737,129.776623 C12.0246843,128.972444 11.50879,128.480862 11.091038,127.663322 C9.3565568,128.463597 8.15866778,129.888804 6.5989973,130.704348 Z M207.705505,71.955394 L208.817067,74.2354479 C209.933113,73.832621 212.860568,72.5182932 213.573609,71.6984108 L212.434882,69.4431703 C211.234147,69.969717 208.511773,71.2240069 207.705505,71.955394 Z M88.5990287,76.5580142 L89.7682857,78.9313351 C90.9595342,78.5466411 93.5973048,77.0663413 94.5869215,76.4967616 L93.4516435,74.2405667 C91.9794215,74.5059657 89.8885921,75.9112181 88.5990287,76.5580142 Z M19.7618918,121.130378 C20.3114201,121.960411 20.6718217,122.466482 21.3851219,123.254784 L24.4839375,121.023403 C24.6572822,120.902112 24.9320463,120.711761 25.0747754,120.582401 L25.5901522,120.011086 C25.1341955,119.227556 24.6678036,118.721659 24.2553986,117.958344 C23.0724293,118.503544 20.7252912,120.266421 19.7618918,121.130378 Z M285.376061,46.5804247 L285.525171,49.3095485 L290.815374,48.9500149 L290.795797,46.4259918 C289.419992,45.9692869 286.905892,46.4773537 285.376061,46.5804247 Z M253.050219,52.9388078 L253.724969,55.3450107 L258.922031,53.9598867 L258.291522,51.3441582 C257.133735,51.5411035 253.779474,52.3366931 253.050219,52.9388078 Z M143.17387,61.6979279 L148.46778,61.8686717 L148.649663,59.1791104 L143.117209,58.9169216 L143.17387,61.6979279 Z M176.079855,79.8380643 C176.351946,80.5714469 178.224068,84.1025805 178.657257,84.4704431 L180.907029,83.3603484 C180.265568,81.8549749 179.168408,79.6730467 178.311516,78.4761052 L176.079855,79.8380643 Z M171.467336,73.4971199 L174.534846,77.5417863 C175.324728,77.1979562 175.974727,76.6227372 176.659999,76.0671259 C176.190848,74.8996828 174.073283,72.2751048 173.297631,71.7281695 C172.598905,72.2804839 171.888279,72.7524585 171.467336,73.4971199 Z M95.9773869,72.9834137 L97.0244403,75.2700614 L101.873347,73.0613243 L100.913569,70.6115678 C99.6812702,70.9317991 96.7479513,72.2502914 95.9773869,72.9834137 Z M277.11468,47.4785646 L277.466457,50.1572809 L282.815045,49.5655774 L282.567188,46.8642168 L277.11468,47.4785646 Z M299,46 L293.615967,46 L293.591044,48.7389277 L298.968005,48.7229639 L299,46 Z M268.975761,48.8282038 L269.491397,51.4946869 L274.805488,50.5859622 L274.386011,47.9320593 L268.975761,48.8282038 Z M46.6190984,102.279243 L47.9465216,104.345346 C48.9106972,104.039431 51.6369512,102.089412 52.4925492,101.451205 L51.095702,99.2432487 L47.777834,101.304407 C47.5411884,101.46205 47.4138102,101.530937 47.1738012,101.731353 C47.1298183,101.767706 47.0713468,101.818894 47.030296,101.856027 L46.7542382,102.132965 C46.7234501,102.163678 46.6623914,102.229096 46.6190984,102.279243 Z M26.4008187,116.268779 C26.7525962,117.03756 27.4810748,118.015085 28.1484085,118.451401 C29.2030511,117.282483 31.1697796,116.455139 32.2901379,115.290212 C31.7667406,114.605242 31.3457977,113.921052 30.6938149,113.173875 L26.4008187,116.268779 Z M260.952061,50.5837065 L261.547814,53.2405592 L266.737028,52.089774 L266.325313,49.4349168 L260.952061,50.5837065 Z M179.72406,87.117492 L180.999911,90.3729022 L185.208822,87.8168646 L183.868721,85.5231027 C183.369989,85.7495464 183.036322,86.0055753 182.784239,86.0845269 C181.41818,86.5126877 183.247785,85.9740814 181.748742,86.1656476 C181.075199,86.2518003 180.213737,86.7109344 179.72406,87.117492 Z M193.286854,79.8144655 L194.550459,82.1614114 C195.271866,81.9014783 198.84518,79.8722477 199.204547,79.407908 L197.992083,77.1787823 L193.286854,79.8144655 Z M60.3310038,93.285003 C60.7111546,94.0279292 61.0822501,94.7937601 61.764331,95.4009936 L66.1451207,92.7252272 L64.9196345,90.375852 C63.9898691,90.7329564 60.8016215,92.7038842 60.3310038,93.285003 Z M53.4027379,97.6345441 C53.6158397,98.1707211 53.6212729,98.186685 54.0070294,98.7771738 C54.2764466,99.1893708 54.001165,98.8196862 54.3316409,99.2376093 L54.8734076,99.8314818 C55.7270221,99.4266595 56.4404085,98.8642809 57.156641,98.4132154 L59.2698069,96.8827683 L57.963599,94.8176191 C56.8906734,95.1575449 54.3201708,97.0103923 53.4027379,97.6345441 Z M158.744961,64.2404309 L163.314274,66.6055964 L164.721384,64.2443351 C162.969999,63.5636159 161.611098,62.3641583 159.524322,61.8829004 L158.744961,64.2404309 Z M165.652788,68.1006454 L169.469302,71.3911935 C170.208819,70.9588682 170.908235,70.2810988 171.344356,69.2781527 C170.030386,68.4321555 168.656738,66.8281359 167.172097,66.0116372 L165.652788,68.1006454 Z M245.190032,55.2416795 L245.984571,57.8340695 L251.105999,56.2104421 L250.394424,53.6374864 L245.190032,55.2416795 Z M186.261222,83.9645453 C186.561427,84.9153486 187.108023,85.6298175 187.540264,86.2933583 L192.193403,83.6180257 C191.784361,82.7477358 191.290372,81.9914485 190.834416,81.2998842 L186.261222,83.9645453 Z M74.2812796,84.5622352 C74.6399563,85.5279613 75.1092805,85.9916069 75.4469144,86.9136059 C77.1769973,86.2724492 78.6586196,84.9227232 80.2273454,84.4067612 L78.9642581,81.9354015 L74.2812796,84.5622352 Z M103.380238,69.3745431 L104.424531,71.8862463 L109.30871,69.8454766 L108.443281,67.3249239 L103.380238,69.3745431 Z M118.718823,63.4362521 C118.931493,64.2940486 119.208241,65.4034493 119.700333,65.9850886 L124.572438,64.5448719 L124.00799,61.9503129 L118.718823,63.4362521 Z M13.2487044,125.921874 C13.4674981,126.49987 13.5706424,126.676427 13.88525,127.103112 L14.6531408,127.917616 C14.6839289,127.945726 14.7501621,128.005243 14.8029417,128.043331 L18.9813235,124.893855 C18.4941474,124.010985 18.0120596,123.553586 17.6712348,122.785759 C16.8019244,123.138179 13.9434628,125.22415 13.2487044,125.921874 Z M237.437646,58.1203777 L238.37707,60.6303456 L243.432093,58.7981471 L242.556918,56.295814 L237.437646,58.1203777 Z M134.80348,59.5871429 L135.212521,62.1905515 L140.490909,61.772021 L140.340073,59.1013734 L134.80348,59.5871429 Z M214.943808,68.1350024 L216.07279,70.527237 L220.85762,68.287006 C220.707819,67.3957201 220.382862,66.6077654 219.748473,65.8790678 L214.943808,68.1350024 Z M39.8000138,106.828853 L41.2562812,109.036809 C42.8401854,108.183437 44.1986554,106.871105 45.701148,106.152211 L44.2478128,103.799626 L39.8000138,106.828853 Z M222.34571,64.5400134 L223.461411,67.0270767 L228.321098,64.8618931 L227.358388,62.434781 L222.34571,64.5400134 Z M81.4027255,80.4607411 L82.5923354,82.8335414 C83.4532804,82.5127896 84.4101255,81.9587399 85.1031591,81.5738724 L87.0204714,80.4230872 C87.058935,80.3938491 87.133706,80.3266968 87.1642354,80.302404 C87.1950235,80.2780244 87.2608254,80.2224113 87.3058433,80.1786842 L86.0106743,78.0021351 L81.4027255,80.4607411 Z M111.009902,66.2046783 L111.931302,68.7240163 L116.941307,66.9257409 L116.125553,64.4116085 L111.009902,66.2046783 Z M200.405368,75.7779547 L201.619384,78.1226447 L206.373943,75.6330654 L205.224262,73.251242 L200.405368,75.7779547 Z M229.879561,61.1849158 L230.873059,63.7023452 L235.811656,61.6960192 L234.889566,59.2516418 L229.879561,61.1849158 Z M67.2886778,88.9162011 L68.5603893,91.1225089 L73.1831715,88.3763801 C73.0318184,88.0620485 72.763436,87.5419221 72.6000954,87.2632488 C72.4641794,87.0313392 72.3353351,86.8184301 72.198988,86.6420469 C71.8997313,86.2551839 71.9527696,86.3351767 71.7181075,86.1295554 L67.2886778,88.9162011 Z M126.673358,61.1822263 L127.305333,63.7276791 L132.440732,62.7461628 L132.053768,60.1417131 L126.673358,61.1822263 Z" id="Fill-15" fill="#FFFFFF"></path>
            </g>
        </g>
    </g>
</svg>