<?xml version="1.0" encoding="UTF-8"?>
<svg width="373px" height="95px" viewBox="0 0 373 95" version="1.1" xmlns="http://www.w3.org/2000/svg" xmlns:xlink="http://www.w3.org/1999/xlink">
    <title>ic_saltamontes_green</title>
    <g id="Página-1" stroke="none" stroke-width="1" fill="none" fill-rule="evenodd">
        <g id="Avióica-Web---4" transform="translate(-753, -436)">
            <g id="logo_saltamontes_green" transform="translate(753, 436)">
                <g id="Grupo-Copia-4">
                    <g id="Grupo" transform="translate(142.4725, 0)">
                        <path d="M108.832281,28.4154548 C108.645531,28.4406403 105.694504,27.6572243 104.994527,27.5092463 C104.604661,27.4267402 103.844506,27.3777277 103.64398,27.242656 C104.051764,27.0316097 104.284917,27.3669116 104.527289,26.8519147 C104.430081,26.6469297 104.246283,26.4923157 104.03167,26.4087645 C103.743518,26.2966315 103.512436,26.3443377 103.208384,26.3595953 C102.813806,26.3791376 102.719861,26.3120459 102.377796,26.2804856 C102.01051,26.2467307 101.880417,26.3807574 101.516497,26.3298116 L98.8235336,26.1809453 C98.5327397,26.1824606 98.2583628,26.1031942 97.9560718,26.0762321 C96.9086441,25.9829098 95.5534876,25.8845713 94.5358902,25.6809448 C94.2215842,25.617981 92.4521694,25.2075406 92.1836446,25.235391 C91.780262,25.2771405 92.0349591,25.2981981 91.693464,25.0016673 C91.34042,25.1069553 91.5530129,25.3104773 91.0083505,25.1700759 C89.9481309,24.8966406 90.9464111,25.2787603 89.7178263,24.7726463 C89.5078747,24.6863258 89.2493452,24.6403962 88.9839278,24.6067981 L86.6961592,24.1775469 C86.389518,24.1040805 86.0926648,24.1502713 85.9776937,23.9208323 C86.2648624,23.6773374 88.6057662,23.3556212 89.1796375,23.2423386 C89.737765,23.1321389 90.2455538,23.0346887 90.7871089,22.9071413 L94.2409532,22.4216146 C94.5373403,22.3839931 94.7693022,22.3074437 95.0792061,22.2899393 C95.4213745,22.2705537 95.7594515,22.3081753 96.0852546,22.2631339 C97.1887695,22.111028 98.5189121,22.0070463 99.484151,21.7093138 C99.582964,21.8104739 99.591302,21.8131387 99.655779,21.9584519 C100.057297,21.7851838 100.979655,21.6991246 101.406964,21.7108291 C102.187369,21.732566 102.012375,22.3669589 102.774446,23.3258897 C103.112523,23.7512742 102.901588,23.5492153 103.276797,23.8593838 C103.466034,24.0157744 103.562775,24.2385774 103.748645,24.4253265 C103.955178,24.6329764 104.145606,24.6627601 104.351414,24.8591758 C104.6246,25.1200183 104.501136,25.0705356 104.929377,25.2510667 C105.747225,25.5958784 104.991472,26.1135923 105.930143,26.3267287 C106.210216,26.3903718 106.510436,26.7021601 106.800246,26.9525 C107.351744,27.4288303 107.698056,27.6287992 108.347694,28.0027676 C108.529421,28.107533 108.888213,28.2273471 108.832281,28.4154548" id="Fill-2" fill="#133821"></path>
                        <path d="M101.744938,21.5815051 C101.448965,21.5444584 101.452487,21.4779937 101.236838,21.4202028 L99.4101449,21.4413649 C98.6458981,21.5434656 97.7509883,21.5518782 96.9968922,21.68904 C95.5182712,21.9578771 93.7377218,22.0034932 92.3504045,22.3410418 C91.6107056,22.5208414 90.742208,22.3733337 90.1169623,22.6895635 C89.8308294,22.8342496 88.6280872,22.8901071 87.8330261,23.0564256 L85.7068385,23.5844854 C85.3554,23.7238418 85.1126143,23.5419522 84.6716329,23.5779539 C84.2866871,23.6093574 83.7936063,23.5634278 83.5836546,23.3347726 C83.619596,23.0080401 83.810593,22.969478 84.1520881,23.0180725 C84.8296922,23.1143732 85.3485121,22.6377294 86.4458641,22.7125021 C86.692793,22.7294318 86.9141899,22.6350645 87.1575453,22.5679728 C87.4709709,22.4814433 88.1732783,22.4931478 88.7053042,22.3056672 C88.9384572,22.2235791 89.0837765,22.0416895 89.2887046,21.9252718 C89.8617991,22.5343224 89.6391074,22.1669901 90.3346823,22.0673453 C90.841021,21.9947671 91.3313052,21.9985815 91.8013918,21.8648683 C91.7256248,21.8010162 91.9354211,21.6779103 91.2278313,21.8578665 C90.9481719,21.9291384 90.892499,21.9206736 90.6284281,21.8355026 C90.772867,21.4412604 91.0930769,21.5321791 91.5623867,21.4125218 C92.004093,21.2998139 92.1366722,21.1923836 92.6556474,21.2190844 C93.0359841,21.2386267 93.3903746,21.0745028 93.7945341,21.0607083 C94.4272374,21.0392326 94.3162541,21.151836 95.0018337,20.9751193 C96.4017357,20.6141617 96.3126073,20.8456908 96.6106516,20.8234314 C96.7661214,20.8118837 96.9777821,20.7058642 97.1596642,20.6751922 C97.6413515,20.5934176 97.8602108,20.6189166 98.3164698,20.4724017 C98.9337919,20.2741049 98.7470416,20.5334322 99.4715146,20.4445513 L99.5057469,20.6262842 C99.5210246,20.715165 99.5024843,20.7254064 99.5361469,20.7838766 C99.9803392,20.7425974 100.328878,20.6433184 100.825946,20.5921113 C101.20882,20.5525564 101.50961,20.1437359 102.037648,20.2897806 L101.744938,21.5815051 Z" id="Fill-3" fill="#133821"></path>
                        <path d="M83.733117,24.5537622 C83.719134,25.0006223 83.6632022,25.4199455 83.5094931,25.7924508 C82.2787332,25.735705 82.49086,25.8810182 82.0394173,25.8709335 C81.7872061,25.5770676 81.8610568,25.5809343 81.7694425,25.1076869 C81.6374848,24.4263715 81.3863093,24.3237484 82.8818133,24.3890635 C83.611258,24.420885 83.2342877,24.3200385 83.733117,24.5537622" id="Fill-4" fill="#133821"></path>
                        <path d="M125.13295,19.6237228 C120.9146,16.4079709 115.145642,14.5834838 106.785124,16.7386745 C94.901726,14.6381395 82.5586515,14.0487357 64.5121841,15.7113457 C57.494289,16.0164981 57.4498025,19.7633927 60.8361143,20.2792779 C66.4915506,21.275778 70.3184294,22.1427451 75.9737104,23.1394019 C71.963603,25.4769525 69.6303639,26.2314731 72.1004289,29.3919945 C69.2703802,30.2289689 67.7962131,31.2120402 66.5536454,31.4271099 C65.0763709,31.6381562 63.5989411,31.849516 62.1216667,32.0605623 C58.8933106,32.6785481 62.1541382,36.5870063 65.8519076,35.1357561 C66.9011479,34.6967338 65.5772718,33.6643888 68.0050772,33.8699486 C84.0880772,34.2088558 98.0363962,31.5802609 111.534153,29.5098753 C116.591533,30.6053409 121.609242,30.9968138 126.420988,27.7008026 C130.914802,35.6249926 136.893038,34.968079 138.282686,30.448062 C139.767004,24.3064007 134.282315,14.6551215 127.743673,16.2977712 C126.381939,16.9500344 125.574397,18.1167718 125.13295,19.6237228" id="Fill-5" fill="#133821"></path>
                        <path d="M106.910349,27.9785226 C95.3935121,26.9681757 86.5794791,25.2509622 83.5836546,23.3347726 C89.346242,21.6628094 95.7486276,20.5230863 102.339317,20.2505392 C101.258848,22.7670533 103.103305,25.8932974 106.910349,27.9785226 Z" id="Fill-6" fill="#FFFFFF"></path>
                        <path d="M103.254218,0.395414676 C110.47383,-1.22173604 120.459791,1.98037809 130.71526,12.6158781 C132.971023,15.2397704 131.023714,16.842813 128.505434,13.7705976 C122.627772,7.53963739 115.177544,0.810714488 103.335112,0.772047923 C102.956639,0.743047999 102.925048,0.496731527 103.254218,0.395414676" id="Fill-7" fill="#133821"></path>
                        <path d="M86.4191411,12.365277 C74.0050642,11.4577623 72.1710688,11.9142367 55.3405498,12.0517121 C46.6369305,12.3464662 47.9917763,15.1150446 52.8625093,14.9459045 C62.2947447,13.7267581 75.9982065,13.297507 87.0471835,13.1513056 C87.7939774,13.1413777 87.4913757,12.4436029 86.4191411,12.365277" id="Fill-8" fill="#133821"></path>
                        <path d="M98.0701625,40.5347581 C104.298849,38.5818353 109.188692,35.961653 113.842637,33.2240602 C115.750328,32.102782 115.75561,33.5198071 113.666607,34.8909549 C106.767049,38.920429 99.9088707,42.0660064 92.087939,45.2596557 C88.1703781,46.532883 86.3303234,44.3565824 87.5733055,42.7888099 C88.3531407,41.8701654 88.3728204,42.6933975 91.1939096,42.2989463 C93.6679623,41.9528283 95.4950699,41.3003561 98.0701625,40.5347581" id="Fill-9" fill="#133821"></path>
                        <path d="M63.4713854,27.7379538 C66.7480086,27.3569837 67.0771262,27.6785432 70.0317268,28.4138349 C66.4036133,29.9746579 66.8716283,30.1269205 62.6488245,30.4514584 C60.9654308,30.4479053 60.3609006,30.9595057 59.632906,31.5600916 C56.9224893,32.1629242 54.5942219,30.0777513 56.528325,28.1103024 C57.427378,27.7013774 58.2421188,27.4787311 59.4438252,27.6634423 C61.4399194,28.1174087 61.3754942,28.3227073 63.4713854,27.7379538" id="Fill-10" fill="#133821"></path>
                        <path d="M16.0132516,38.2536398 C36.9523284,32.9714734 44.8434339,31.6040878 49.2454786,31.2835734 C52.5755478,31.2151231 50.953213,32.3985813 49.6365356,32.4819756 C31.8271572,35.3798779 16.6430548,40.8194277 2.46525973,48.2676009 C-0.977553577,50.1036358 -0.784226129,47.9442648 2.8562131,45.0312617 C4.83319729,43.3845363 4.79285384,42.8911195 6.76983804,41.2443941 C9.44752418,38.7209305 11.5284484,39.3169703 16.0132516,38.2536398" id="Fill-11" fill="#133821"></path>
                        <path d="M25.7365917,44.1687882 C35.8500046,39.752126 45.9601549,36.6389972 56.0683891,34.2485674 C58.3847968,33.8964926 58.222439,34.7571895 56.3809342,35.3807662 C44.2456362,39.5004798 32.5705849,44.4718505 21.5113019,50.5816381 C18.1512989,52.6374976 13.7842115,55.1840567 10.424312,57.2399162 C6.54611059,59.291909 9.52178927,55.7315021 11.6476662,53.1935123 C12.6774857,51.0961647 11.4658876,51.1653465 16.8456524,48.3630133 L25.7365917,44.1687882 Z" id="Fill-12" fill="#133821"></path>
                        <path d="M91.6347356,38.2719803 C98.0711982,37.9012515 102.76269,36.0425393 107.608513,34.0807336 C109.625012,33.4213119 109.343592,34.7518598 107.106473,35.6085332 C100.118356,38.8015032 93.2332993,40.8739266 84.764542,40.8978058 C81.4304851,40.6470479 80.3045456,38.5874786 81.7875168,37.3723034 C83.1420519,36.2635135 82.7054726,37.9924837 86.5245313,38.5077941 C88.9015836,38.8286221 89.0640968,38.4606627 91.6347356,38.2719803" id="Fill-13" fill="#133821"></path>
                        <path d="M136.504156,28.6765586 C136.448639,27.8191014 136.070943,28.3489378 135.970836,28.667519 C134.47414,31.2176312 131.736276,29.9115896 128.735324,26.6284324 C128.30874,26.1286932 127.599389,25.8706722 127.951864,26.5188075 C131.220563,32.8670737 136.192647,33.2361827 136.504156,28.6765586" id="Fill-14" fill="#133821"></path>
                    </g>
                    <path d="M0,81.6306288 L0,83 L1.08191902,83 C1.80799746,82.3882322 2.9548596,81.6609873 3.53675812,80.98798 C3.38206509,80.621954 2.95630968,80.035006 2.60559619,79.7665869 C1.90567107,80.0254961 0.771445396,81.1744678 0,81.6306288 Z M90.7490848,37.4027141 L93.7984589,38.0954204 C94.0132269,37.368489 94.27823,37.0005296 94.1049966,36.5077921 C93.5101509,36.2617369 91.6262311,35.7795021 90.9604866,35.8602316 L90.7490848,37.4027141 Z M19.9052696,67.0585066 C20.1777302,67.6660942 20.3984021,67.7509517 20.6328499,68.3697735 C21.415896,68.1153057 22.6661802,67.0105392 23.4065524,66.5562593 C23.1524249,66.0508769 22.8290041,65.6499464 22.5647778,65.214007 C21.7128527,65.5961789 20.6462114,66.4554127 19.9052696,67.0585066 Z M3.96277248,78.6061196 C4.18344439,79.1890965 4.50111666,79.5318181 4.90455111,79.9468566 C5.41187382,79.6943222 7.08910466,78.4767956 7.4502277,78.0473878 C7.22095885,77.5630629 6.91115848,77.2670024 6.66029372,76.7746307 C5.61871814,77.2566042 4.89937224,78.1149497 3.96277248,78.6061196 Z M124.729504,43.2239655 L125.397009,44.5971511 C126.067208,44.3545445 127.825177,43.5629772 128.253367,43.0691947 L127.569548,41.7109532 C126.848493,42.0280713 125.213677,42.7834802 124.729504,43.2239655 Z M53.2047184,45.9959402 L53.9068704,47.4252968 C54.6222286,47.193611 56.2062396,46.3020854 56.8005157,45.9590502 L56.1187684,44.600234 C55.2346825,44.7600732 53.9791157,45.6064007 53.2047184,45.9959402 Z M11.8672394,72.8400987 C12.1972374,73.3399947 12.4136626,73.6447813 12.8420075,74.119544 L14.7028813,72.7756718 C14.8069767,72.7026234 14.9719757,72.5879822 15.0576861,72.5100743 L15.3671757,72.1659942 C15.0933685,71.6941053 14.8132949,71.3894232 14.5656411,70.9297091 C13.8552546,71.2580614 12.4457717,72.3197721 11.8672394,72.8400987 Z M171.371551,27.9416326 L171.461093,29.5852751 L174.63792,29.3687424 L174.626164,27.8486238 C173.799977,27.5735687 172.290231,27.8795571 171.371551,27.9416326 Z M151.959517,31.7710334 L152.364712,33.2201935 L155.485607,32.3859885 L155.106979,30.8106395 C154.411715,30.9292518 152.397443,31.4084037 151.959517,31.7710334 Z M85.9775273,37.0463024 L89.1565804,37.1491346 L89.2658029,35.529319 L85.9435021,35.3714131 L85.9775273,37.0463024 Z M105.737944,47.9713837 C105.901337,48.4130708 107.025568,50.5397319 107.285703,50.7612809 L108.636716,50.0927151 C108.251511,49.1860886 107.592655,47.8720002 107.078081,47.15113 L105.737944,47.9713837 Z M102.968074,44.1524856 L104.810148,46.588427 C105.284481,46.3813518 105.674813,46.0349203 106.086327,45.7002977 C105.804596,44.9971933 104.532975,43.4165145 104.067186,43.0871172 C103.647594,43.4197542 103.220854,43.7040057 102.968074,44.1524856 Z M57.6355059,43.8431008 L58.2642733,45.2202576 L61.1760964,43.8900232 L60.5997393,42.4146325 C59.8597296,42.607495 58.0982385,43.4015704 57.6355059,43.8431008 Z M166.410498,28.4825465 L166.621744,30.0958305 L169.833631,29.7394711 L169.684791,28.1125492 L166.410498,28.4825465 Z M179.55288,27.5920659 L176.319708,27.5920659 L176.304741,29.241613 L179.533667,29.2319986 L179.55288,27.5920659 Z M161.522985,29.2953804 L161.83263,30.9012969 L165.023802,30.3540082 L164.771901,28.7556683 L161.522985,29.2953804 Z M27.9952956,61.4868113 L28.7924282,62.7311432 C29.3714266,62.5469022 31.0085729,61.3724837 31.5223692,60.9881171 L30.6835467,59.6583531 L28.6911294,60.8997066 C28.5490211,60.9946487 28.4725291,61.0361368 28.3284009,61.1568392 C28.3019887,61.1787329 28.2668759,61.2095616 28.2422244,61.2319255 L28.0764486,61.3987143 C28.05796,61.4172115 28.0212936,61.4566096 27.9952956,61.4868113 Z M15.8539901,69.9121514 C16.0652364,70.3751574 16.5026961,70.963882 16.9034376,71.2266579 C17.5367623,70.5226651 18.717805,70.024389 19.3905928,69.3227998 C19.0762868,68.9102694 18.8235059,68.4982092 18.4319829,68.048214 L15.8539901,69.9121514 Z M156.704662,30.3526497 L157.062419,31.9527662 L160.178601,31.2596942 L159.931361,29.6607794 L156.704662,30.3526497 Z M107.92633,52.3554929 L108.692493,54.3160968 L111.219991,52.7766972 L110.415246,51.3952558 C110.115751,51.5316338 109.915381,51.6858298 109.764002,51.7333792 C108.943668,51.9912434 110.042367,51.6668623 109.142174,51.782235 C108.737704,51.8341213 108.220386,52.1106395 107.92633,52.3554929 Z M116.070941,47.9571711 L116.82975,49.3706431 C117.262963,49.2140957 119.408778,47.991971 119.624582,47.7123177 L118.896484,46.3698041 L116.070941,47.9571711 Z M36.2294498,56.069939 C36.4577347,56.5173739 36.6805817,56.9786033 37.090179,57.3443159 L39.7208928,55.7328084 L38.9849745,54.3178734 C38.4266398,54.5329431 36.5120611,55.7199544 36.2294498,56.069939 Z M32.0689478,58.6894943 C32.1969179,59.0124124 32.2001806,59.0220268 32.4318317,59.3776547 C32.5936198,59.6259045 32.4283101,59.4032582 32.6267646,59.6549567 L32.9521016,60.0126224 C33.4647068,59.768814 33.8931034,59.4301158 34.3232091,59.1584571 L35.5921891,58.2367298 L34.8077965,56.9929727 C34.1634925,57.1976964 32.6198767,58.3135926 32.0689478,58.6894943 Z M95.3281436,38.5775506 L98.0720676,40.0019956 L98.917053,38.579902 C97.8653268,38.1699319 97.0492913,37.4475464 95.7961586,37.1577039 L95.3281436,38.5775506 Z M99.4763716,40.902404 L101.768231,42.88417 C102.21232,42.6237977 102.632327,42.2156042 102.894223,41.6115697 C102.105169,41.1020593 101.280278,40.1360222 100.388734,39.6442776 L99.4763716,40.902404 Z M147.239386,33.1579612 L147.716516,34.7192545 L150.791991,33.7414084 L150.364682,32.1918196 L147.239386,33.1579612 Z M111.85197,50.4565988 C112.032246,51.0292297 112.360483,51.4595259 112.620049,51.8591501 L115.414311,50.2479038 C115.168677,49.7237629 114.872031,49.2682812 114.598224,48.8517796 L111.85197,50.4565988 Z M44.6067481,50.8165636 C44.8221376,51.3981819 45.103972,51.6774172 45.306725,52.2327005 C46.3456594,51.8465573 47.2353903,51.0336712 48.1774279,50.7229278 L47.4189297,49.2345263 L44.6067481,50.8165636 Z M62.0810014,41.6696218 L62.7081115,43.1823206 L65.6411163,41.9532463 L65.1214161,40.4352179 L62.0810014,41.6696218 Z M71.2919952,38.0932258 C71.4197063,38.6098425 71.5858965,39.2779903 71.8814031,39.6282884 L74.8071574,38.7609033 L74.4682,37.1983038 L71.2919952,38.0932258 Z M7.95599675,75.7258263 C8.08738484,76.0739299 8.1493242,76.1802629 8.3382496,76.4372388 L8.79937674,76.9277817 C8.81786532,76.9447114 8.85763909,76.9805563 8.88933381,77.003495 L11.3984993,75.106691 C11.1059446,74.5749734 10.8164454,74.2995003 10.6117762,73.8370691 C10.0897455,74.0493172 8.37320701,75.3056148 7.95599675,75.7258263 Z M142.58399,34.8916864 L143.148125,36.4033401 L146.183724,35.29988 L145.658171,33.7928245 L142.58399,34.8916864 Z M80.9510136,35.7750607 L81.1966477,37.3429899 L84.3663789,37.0909257 L84.2758003,35.4825011 L80.9510136,35.7750607 Z M129.076187,40.9230959 L129.754153,42.3638434 L132.627497,41.0146416 C132.53754,40.4778556 132.3424,40.0033019 131.961442,39.5644364 L129.076187,40.9230959 Z M23.9003582,64.22686 L24.7748633,65.5566241 C25.7260157,65.0426723 26.5417922,64.2523068 27.444056,63.8193458 L26.5713118,62.4024774 L23.9003582,64.22686 Z M133.521113,38.7579772 L134.191104,40.2558363 L137.1094,38.9518326 L136.531283,37.4900796 L133.521113,38.7579772 Z M48.8832569,48.3463971 L49.5976311,49.7754402 C50.1146383,49.5822642 50.6892346,49.2485821 51.1054091,49.0167918 L52.2567769,48.3237197 C52.2798747,48.3061107 52.3247755,48.2656676 52.3431087,48.251037 C52.3615973,48.2363542 52.4011122,48.2028606 52.4281459,48.1765255 L51.6503823,46.8656767 L48.8832569,48.3463971 Z M66.6627014,39.7605385 L67.2160125,41.2778355 L70.2245771,40.1948059 L69.7347072,38.6806441 L66.6627014,39.7605385 Z M120.345689,45.5261414 L121.074719,46.9382549 L123.929886,45.4388804 L123.23949,44.0044031 L120.345689,45.5261414 Z M138.045275,36.7373357 L138.641882,38.253483 L141.607565,37.0451529 L141.05384,35.5730018 L138.045275,36.7373357 Z M40.4076117,53.4387838 L41.1712888,54.7675551 L43.9473218,53.1136711 C43.8564326,52.9243617 43.6952659,52.6111103 43.597178,52.4432765 C43.5155589,52.3036066 43.4381865,52.1753799 43.3563085,52.0691513 C43.1766015,51.8361591 43.2084516,51.8843356 43.0675343,51.7604981 L40.4076117,53.4387838 Z M76.0687835,36.7357158 L76.4482915,38.2687406 L79.5321569,37.6776125 L79.2997807,36.1090562 L76.0687835,36.7357158 Z" id="Fill-15" fill="#133821"></path>
                </g>
            </g>
        </g>
    </g>
</svg>