<?xml version="1.0" encoding="UTF-8"?>
<svg width="60px" height="60px" viewBox="0 0 60 60" version="1.1" xmlns="http://www.w3.org/2000/svg" xmlns:xlink="http://www.w3.org/1999/xlink">
    <title>ic_submit</title>
    <g id="Página-1" stroke="none" stroke-width="1" fill="none" fill-rule="evenodd">
        <g id="Aviónica-Saltamontes----Web-Quote---3" transform="translate(-986, -123)">
            <g id="ic_submit" transform="translate(986, 123)">
                <rect id="Rectángulo-Copia-7" fill="#000E25" x="0" y="0" width="60" height="60" rx="30"></rect>
                <g id="sms-tracking" transform="translate(15, 15)">
                    <path d="M30,0 L30,30 L0,30 L0,0 L30,0 Z" id="Vector" opacity="0"></path>
                    <path d="M1.25,22.5 C1.25,25.9625 4.05000001,28.75 7.5,28.75 C10.95,28.75 13.75,25.95 13.75,22.5 C13.75,19.05 10.9625,16.25 7.5,16.25 C4.05000001,16.25 1.25,19.0375 1.25,22.5 Z M7.5,19.9500084 C7.97499999,19.9500084 8.34999084,20.3374992 8.34999084,20.7999992 C8.34999084,21.2624992 7.96250001,21.6500092 7.5,21.6500092 L4.94998932,21.6500092 C4.47498932,21.6500092 4.09999847,21.2624992 4.09999847,20.7999992 C4.09999847,20.3374992 4.47498932,19.9500084 4.94998932,19.9500084 L7.5,19.9500084 Z M4.93751526,25.0499916 C4.46251526,25.0499916 4.08748627,24.6625008 4.08748627,24.2000008 C4.08748627,23.7375008 4.47501525,23.3499908 4.93751526,23.3499908 L10.0500107,23.3499908 C10.5250107,23.3499908 10.9000015,23.7375008 10.9000015,24.2000008 C10.9000015,24.6625008 10.5250107,25.0499916 10.0500107,25.0499916 L4.93751526,25.0499916 Z" id="Vector" fill="#FFFFFF"></path>
                    <path d="M8.75,3.75 C5,3.75 2.5,5.625 2.5,10 L2.5,13.9249992 C2.5,14.8374993 3.43751676,15.4124916 4.27501678,15.0499916 C5.65001681,14.4499916 7.21248329,14.2249954 8.84998322,14.4874954 C12.1249831,15.0249954 14.7999939,17.6125032 15.4624939,20.8625031 C15.6499939,21.812503 15.6750031,22.7374924 15.5500031,23.6249924 C15.4500031,24.3624923 16.0499909,25.0124931 16.7874908,25.0124931 L21.25,25.0124931 C25,25.0124931 27.5,23.1374931 27.5,18.7624931 L27.5,10.0124931 C27.5,5.62499315 25,3.75 21.25,3.75 L8.75,3.75 Z" id="Vector" fill="#FFFFFF" fill-rule="nonzero" opacity="0.400000006"></path>
                    <g id="Group" transform="translate(7.8101, 9.0552)" fill="#FFFFFF" fill-rule="nonzero">
                        <path d="M4.26588893,4.79478896 L0.353382975,1.66978881 C-0.0466170162,1.34478882 -0.121610928,0.757285058 0.20338906,0.357285067 C0.528389048,-0.0427149236 1.11587383,-0.117708836 1.51587382,0.207291152 L5.42837977,3.33229125 C6.37837976,4.09479126 7.99087673,4.09479126 8.94087672,3.33229125 L12.8533828,0.207291152 C13.2533828,-0.117708836 13.8533676,-0.055214949 14.1658676,0.357285067 C14.4908676,0.757285058 14.4283737,1.35728881 14.0158737,1.66978881 L10.1033676,4.79478896 C9.30336758,5.45728892 8.24088432,5.78228056 7.19088435,5.78228056 C6.14088438,5.78228056 5.0783889,5.45728892 4.26588893,4.79478896 Z" id="Vector"></path>
                    </g>
                </g>
            </g>
        </g>
    </g>
</svg>