<?xml version="1.0" encoding="UTF-8"?>
<svg width="35px" height="35px" viewBox="0 0 35 35" version="1.1" xmlns="http://www.w3.org/2000/svg" xmlns:xlink="http://www.w3.org/1999/xlink">
    <title>ic_wahstapp</title>
    <g id="Página-1" stroke="none" stroke-width="1" fill="none" fill-rule="evenodd">
        <g id="Aviónica-Saltamontes----Web-A" transform="translate(-1086, -2926)">
            <g id="ic_wahstapp" transform="translate(1086, 2926)">
                <g id="whatsapp" transform="translate(6, 6)">
                    <path d="M23,0 L23,23 L0,23 L0,0 L23,0 Z" id="BG-1" opacity="0.579999983"></path>
                    <path d="M11.5,21.0833333 C16.7708333,21.0833333 21.0833333,16.7708333 21.0833333,11.5 C21.0833333,6.22916667 16.7708333,1.91666667 11.5,1.91666667 C6.22916667,1.91666667 1.91666667,6.22916667 1.91666667,11.5 C1.91666667,13.225 2.39583328,14.8541667 3.16249995,16.2916667 L2.35710949,19.3893224 C2.21813596,19.923836 2.53878454,20.4698052 3.07329816,20.6087788 C3.24616377,20.6537238 3.42791244,20.651549 3.59965305,20.6024802 L6.61250009,19.741667 L6.61250009,19.741667 C8.05000009,20.604167 9.77500005,21.0833333 11.5,21.0833333 Z" id="Vector" stroke="#000E25" stroke-width="1.5" stroke-linecap="round" stroke-linejoin="round" stroke-dasharray="0,0" fill-rule="nonzero"></path>
                    <path d="M15.7045255,14.699875 C15.6311029,14.855125 15.5360861,15.0017502 15.4108357,15.1397502 C15.1992057,15.3726252 14.9659803,15.5408129 14.7025226,15.6486254 C14.4433839,15.7564379 14.1626508,15.8125 13.8603223,15.8125 C13.4197865,15.8125 12.9490173,15.7090002 12.4523348,15.4976877 C11.9556522,15.2863752 11.4589698,15.0017504 10.9666063,14.6438129 C10.4699238,14.2815629 9.99915497,13.8804999 9.54998121,13.4363124 C9.10512643,12.9878124 8.70346141,12.5177501 8.3449862,12.0261251 C7.99082995,11.5345001 7.70577744,11.0428752 7.49846647,10.5555627 C7.2911555,10.0639377 7.1875,9.59387497 7.1875,9.14537498 C7.1875,8.85212498 7.2393277,8.57181257 7.34298318,8.31306256 C7.44663867,8.05000005 7.61075991,7.80850002 7.83966577,7.59287502 C8.11608039,7.32118753 8.41840897,7.1875 8.73801339,7.1875 C8.85894479,7.1875 8.97987617,7.21337503 9.08785063,7.26512503 C9.20014407,7.31687503 9.29948061,7.39450001 9.37722223,7.506625 L10.3792253,8.9168126 C10.456967,9.0246251 10.5131135,9.12381252 10.5519843,9.21868752 C10.5908551,9.30925001 10.6124502,9.39981258 10.6124502,9.48175007 C10.6124502,9.58525007 10.5822173,9.68874988 10.5217516,9.78793738 C10.4656049,9.88712489 10.3835441,9.9906249 10.2798886,10.0941249 L9.95164615,10.4348124 C9.90413739,10.4822499 9.88254256,10.5383126 9.88254256,10.6073126 C9.88254256,10.6418126 9.88686183,10.6719999 9.89549979,10.7064999 C9.90845673,10.7409999 9.92141363,10.7668749 9.93005159,10.7927499 C10.0077932,10.9350624 10.1416813,11.1205002 10.3317163,11.3447501 C10.5260703,11.5690001 10.7333813,11.7975626 10.9579681,12.0261251 C11.191193,12.2546876 11.4157799,12.4659998 11.6446858,12.6600623 C11.8692727,12.8498123 12.0549888,12.9791873 12.201834,13.0568124 C12.2234289,13.0654374 12.2493429,13.0783748 12.2795758,13.0913123 C12.3141276,13.1042498 12.3486794,13.1085623 12.3875502,13.1085623 C12.4609729,13.1085623 12.5171195,13.0826877 12.5646283,13.0352502 L12.8928708,12.7118127 C13.0008452,12.6040002 13.1045008,12.5220625 13.2038373,12.4703125 C13.3031739,12.4099375 13.40251,12.37975 13.5104844,12.37975 C13.592545,12.37975 13.6789249,12.397 13.7739424,12.4358125 C13.8689599,12.474625 13.9682968,12.5306877 14.0762712,12.6040002 L15.5058529,13.6174374 C15.6181464,13.6950624 15.6958876,13.7856247 15.7433964,13.8934372 C15.7865862,14.0012497 15.8125,14.1090625 15.8125,14.2298125 C15.8125,14.3850625 15.7779482,14.544625 15.7045255,14.699875 Z" id="Vector" stroke="#000E25" stroke-width="1.5" stroke-dasharray="0,0" fill-rule="nonzero"></path>
                    <path d="M23,0 L23,23 L0,23 L0,0 L23,0 Z" id="Vector" opacity="0"></path>
                </g>
                <circle id="Oval-Copy-6" stroke="#000E25" stroke-width="0.5" cx="17.5" cy="17.5" r="17.25"></circle>
            </g>
        </g>
    </g>
</svg>