<?xml version="1.0" encoding="UTF-8"?>
<svg width="236px" height="60px" viewBox="0 0 236 60" version="1.1" xmlns="http://www.w3.org/2000/svg" xmlns:xlink="http://www.w3.org/1999/xlink">
    <title>logo_saltamontes_color copia 2</title>
    <g id="Página-1" stroke="none" stroke-width="1" fill="none" fill-rule="evenodd">
        <g id="Aviónica-Saltamontes----Web-A" transform="translate(-161, -2910)">
            <g id="logo_saltamontes_color-copia-2" transform="translate(161, 2910)">
                <path d="M23.6630559,54.7571628 L29.2680347,54.7571628 L26.4537621,49.1206963 L23.6630559,54.7571628 Z M19.5577209,59.6693461 L25.7963655,46.9400565 L27.11106,46.9400565 L33.4206013,59.6693461 L31.7005106,59.6693461 L29.9725972,56.245007 L22.9388383,56.245007 L21.2541466,59.6693461 L19.5577209,59.6693461 Z M38.4587683,59.6693461 L37.663654,59.6693461 L32.7199831,49.8213145 L34.3573446,49.8213145 L38.0572834,57.1896386 L41.7021023,49.8213145 L43.3946166,49.8213145 L38.4587683,59.6693461 Z M45.3350557,59.6693461 L45.3350557,49.7976494 L46.8937965,49.7976494 L46.8937965,59.6693461 L45.3350557,59.6693461 Z M55.4666082,58.5357552 C56.781237,58.5357552 57.8557638,58.1815348 58.6862771,57.4690511 C59.5167904,56.7605774 59.930075,55.855256 59.930075,54.7571628 C59.930075,53.6667936 59.5128791,52.7654822 58.6784544,52.0490873 C57.8439312,51.3367351 56.7733158,50.9784719 55.4666082,50.9784719 C54.159802,50.9784719 53.0930979,51.3327252 52.2664959,52.045176 C51.4399925,52.7536497 51.0267079,53.658971 51.0267079,54.7571628 C51.0267079,55.855256 51.4399925,56.7605774 52.2664959,57.4690511 C53.0930979,58.1815348 54.159802,58.5357552 55.4666082,58.5357552 Z M55.4666082,59.9763349 C53.7149968,59.9763349 52.2705058,59.4803869 51.1408263,58.4885236 C50.0111467,57.5005388 49.4444006,56.2567409 49.4444006,54.7571628 C49.4444006,53.2535091 50.0072354,52.0097769 51.132905,51.0296476 C52.2625846,50.0495841 53.7071742,49.5614586 55.4666082,49.5614586 C57.2417532,49.5614586 58.6941983,50.0495841 59.8237792,51.0257363 C60.9495475,52.0018557 61.5123823,53.2456864 61.5123823,54.7571628 C61.5123823,56.2646622 60.9456362,57.50846 59.8159566,58.4964448 C58.6862771,59.484331 57.2377433,59.9763349 55.4666082,59.9763349 Z M55.1083778,48.2862388 L54.049595,48.2862388 L56.4544944,44.2478234 L58.2060729,44.2478234 L55.1083778,48.2862388 Z M64.0393213,59.6693461 L64.0393213,49.8213145 L64.8462681,49.8213145 L71.1006565,56.7409222 L71.1006565,49.8213145 L72.6121329,49.8213145 L72.6121329,59.6693461 L71.805219,59.6693461 L65.5508305,52.7733049 L65.5508305,59.6693461 L64.0393213,59.6693461 Z M76.0089285,59.6693461 L76.0089285,49.7976494 L77.5676693,49.7976494 L77.5676693,59.6693461 L76.0089285,59.6693461 Z M91.3872295,57.2604367 C90.828306,58.1421258 90.0922558,58.8152662 89.1791119,59.2797266 C88.2698792,59.744154 87.2307516,59.9763349 86.0695843,59.9763349 C84.341638,59.9763349 82.9168022,59.4883081 81.7950439,58.5081788 C80.6771969,57.5281152 80.1182734,56.2843173 80.1182734,54.7807293 C80.1182734,53.2732628 80.6771969,52.0294321 81.7950439,51.0414802 C82.9168022,50.0534954 84.341638,49.5614586 86.0695843,49.5614586 C87.1481209,49.5614586 88.1242403,49.7622504 89.0019852,50.1676137 C89.8797301,50.5690986 90.5842925,51.1398546 91.1234623,51.8759048 L89.8994182,52.7260733 C89.4939234,52.1671498 88.9586649,51.7341772 88.2934457,51.4310996 C87.6282923,51.1280221 86.8882651,50.9784719 86.0734956,50.9784719 C84.8100097,50.9784719 83.7669707,51.3367351 82.9403687,52.0570085 C82.1138653,52.7733049 81.7005807,53.6747149 81.7005807,54.7571628 C81.7005807,55.8395122 82.1138653,56.7409222 82.9443786,57.4573172 C83.7748919,58.1776234 84.8179309,58.5357552 86.0734956,58.5357552 C86.9473292,58.5357552 87.7227883,58.3625399 88.3919188,58.020152 C89.0609836,57.6737542 89.6474835,57.1384958 90.1552641,56.4102682 L91.3872295,57.2604367 Z M96.0947096,55.8670886 L99.9441987,55.8670886 L98.0312374,52.0924075 L96.0947096,55.8670886 Z M92.5247316,59.6693461 L97.5353222,49.8213145 L98.5036189,49.8213145 L103.553618,59.6693461 L101.904424,59.6693461 L100.625195,57.1659736 L95.4255791,57.1659736 L94.1542705,59.6693461 L92.5247316,59.6693461 Z M111.909895,57.7524735 L112.830894,56.3867017 C113.732304,57.0833429 114.669113,57.61469 115.641255,57.9847529 C116.613463,58.3507073 117.577882,58.5357552 118.530336,58.5357552 C119.70728,58.5357552 120.663744,58.2878305 121.395883,57.7878725 C122.1319,57.2880131 122.497888,56.646459 122.497888,55.8631773 C122.497888,55.2412783 122.234219,54.7295864 121.706783,54.3281344 C121.179347,53.9266495 120.45112,53.6865474 119.522232,53.6078281 C119.297874,53.584163 118.975141,53.5605965 118.554001,53.5408427 C116.460035,53.3912925 115.0351,53.1472791 114.271572,52.8008813 C113.681161,52.5135476 113.228435,52.1474946 112.921446,51.6987781 C112.614457,51.2461504 112.460897,50.7423139 112.460897,50.1794463 C112.460897,49.1560953 112.917535,48.3137494 113.83459,47.648596 C114.747767,46.9872881 115.93651,46.6566999 117.396745,46.6566999 C118.459538,46.6566999 119.506488,46.8298166 120.541705,47.1801586 C121.576888,47.5304677 122.560863,48.0500809 123.489849,48.7349552 L122.568784,50.0574067 C121.781591,49.4237738 120.9589,48.9474809 120.092988,48.6247482 C119.227076,48.3059268 118.337498,48.144544 117.424322,48.144544 C116.463946,48.144544 115.672743,48.3335032 115.046933,48.7073788 C114.425001,49.0812544 114.114101,49.5497247 114.114101,50.1125595 C114.114101,50.3330064 114.165244,50.5377095 114.263651,50.7226259 C114.362026,50.9076738 114.519497,51.0848004 114.724167,51.2461504 C115.247692,51.6358027 116.377305,51.8877373 118.117051,51.9940331 C118.916077,52.0412646 119.537976,52.0884962 119.974958,52.1435833 C121.265889,52.2891894 122.289273,52.7025068 123.045077,53.3873812 C123.796871,54.0722884 124.174658,54.9106244 124.174658,55.9104089 C124.174658,57.0990868 123.659055,58.0791175 122.623838,58.846754 C121.588721,59.6142918 120.230804,60 118.554001,60 C117.286538,60 116.105716,59.814985 115.019356,59.4488991 C113.929086,59.0789348 112.893869,58.5161 111.909895,57.7524735 Z M128.669711,55.8670886 L132.5192,55.8670886 L130.606239,52.0924075 L128.669711,55.8670886 Z M125.099733,59.6693461 L130.110324,49.8213145 L131.07862,49.8213145 L136.12862,59.6693461 L134.479426,59.6693461 L133.200196,57.1659736 L128.000581,57.1659736 L126.729272,59.6693461 L125.099733,59.6693461 Z M137.596776,59.6693461 L137.596776,49.8213145 L139.131852,49.8213145 L139.131852,58.2523328 L146.452912,58.2523328 L146.452912,59.6693461 L137.596776,59.6693461 Z M148.708294,59.6693461 L148.708294,51.1909975 L144.551783,51.1909975 L144.551783,49.8213145 L154.399814,49.8213145 L154.399814,51.1909975 L150.243336,51.1909975 L150.243336,59.6693461 L148.708294,59.6693461 Z M156.769315,55.8670886 L160.618804,55.8670886 L158.705842,52.0924075 L156.769315,55.8670886 Z M153.199337,59.6693461 L158.209894,49.8213145 L159.178224,49.8213145 L164.228191,59.6693461 L162.578997,59.6693461 L161.2998,57.1659736 L156.100184,57.1659736 L154.828876,59.6693461 L153.199337,59.6693461 Z M165.69638,59.6693461 L165.69638,49.8213145 L166.975577,49.8213145 L171.006104,55.5836662 L175.044552,49.8213145 L176.323782,49.8213145 L176.323782,59.6693461 L174.788706,59.6693461 L174.788706,52.5883556 L171.006104,58.0633736 L167.231423,52.5883556 L167.231423,59.6693461 L165.69638,59.6693461 Z M184.869017,58.5357552 C186.183646,58.5357552 187.258172,58.1815348 188.088686,57.4690511 C188.919199,56.7605774 189.332484,55.855256 189.332484,54.7571628 C189.332484,53.6667936 188.915288,52.7654822 188.080863,52.0490873 C187.24634,51.3367351 186.175725,50.9784719 184.869017,50.9784719 C183.562211,50.9784719 182.495507,51.3327252 181.668905,52.045176 C180.842401,52.7536497 180.429117,53.658971 180.429117,54.7571628 C180.429117,55.855256 180.842401,56.7605774 181.668905,57.4690511 C182.495507,58.1815348 183.562211,58.5357552 184.869017,58.5357552 Z M184.869017,59.9763349 C183.117406,59.9763349 181.672915,59.4803869 180.543235,58.4885236 C179.413555,57.5005388 178.846809,56.2567409 178.846809,54.7571628 C178.846809,53.2535091 179.409644,52.0097769 180.535314,51.0296476 C181.664993,50.0495841 183.109583,49.5614586 184.869017,49.5614586 C186.644162,49.5614586 188.096607,50.0495841 189.226188,51.0257363 C190.351956,52.0018557 190.914791,53.2456864 190.914791,54.7571628 C190.914791,56.2646622 190.348045,57.50846 189.218365,58.4964448 C188.088686,59.484331 186.640152,59.9763349 184.869017,59.9763349 Z M193.44173,59.6693461 L193.44173,49.8213145 L194.248677,49.8213145 L200.503065,56.7409222 L200.503065,49.8213145 L202.014542,49.8213145 L202.014542,59.6693461 L201.207628,59.6693461 L194.953239,52.7733049 L194.953239,59.6693461 L193.44173,59.6693461 Z M207.72575,59.6693461 L207.72575,51.1909975 L203.569273,51.1909975 L203.569273,49.8213145 L213.417304,49.8213145 L213.417304,51.1909975 L209.260826,51.1909975 L209.260826,59.6693461 L207.72575,59.6693461 Z M214.948469,59.6693461 L214.948469,49.8213145 L224.182522,49.8213145 L224.182522,51.2618942 L216.483511,51.2618942 L216.483511,53.7180351 L221.537422,53.7180351 L221.537422,55.1349826 L216.483511,55.1349826 L216.483511,58.2523328 L224.607541,58.2523328 L224.607541,59.6693461 L214.948469,59.6693461 Z M225.953756,58.4098043 L226.701639,57.118742 C227.378592,57.5714355 228.118553,57.9256888 228.917579,58.1776234 C229.720516,58.4334694 230.484142,58.5594203 231.216248,58.5594203 C232.093993,58.5594203 232.802467,58.382195 233.341735,58.0240633 C233.881004,57.6659315 234.148682,57.2092938 234.148682,56.6503703 C234.148682,56.0875355 233.900659,55.6742509 233.408622,55.3987169 C232.916618,55.1271271 232.141258,54.9775111 231.078465,54.9460234 C229.283632,54.9224569 228.051667,54.7138426 227.382503,54.3241245 C226.713373,53.9305608 226.378807,53.2810855 226.378807,52.3758299 C226.378807,51.5295727 226.74486,50.8486097 227.480911,50.3330064 C228.216928,49.8173046 229.204913,49.5614586 230.444799,49.5614586 C231.291089,49.5614586 232.10977,49.6796198 232.908763,49.919689 C233.703877,50.1558798 234.471415,50.5101331 235.211376,50.9784719 L234.436016,52.2537903 C233.82194,51.8405058 233.160697,51.5216515 232.452158,51.2933819 C231.743684,51.0690566 231.066731,50.9549054 230.421134,50.9549054 C229.673383,50.9549054 229.071106,51.0848004 228.618413,51.3445577 C228.165785,51.6083249 227.937515,51.9468015 227.937515,52.3679087 C227.937515,52.8047926 228.165785,53.1157914 228.622423,53.3007407 C229.078962,53.4857885 229.874043,53.5763404 231.003723,53.5763404 C232.574197,53.5763404 233.755053,53.840009 234.554046,54.3713561 C235.353071,54.9028018 235.754556,55.6899948 235.754556,56.7369123 C235.754556,57.6659315 235.34916,58.4373807 234.538302,59.0553683 C233.727444,59.6693461 232.676516,59.9763349 231.385552,59.9763349 C230.429055,59.9763349 229.484424,59.8386501 228.539759,59.5670603 C227.599039,59.2954704 226.737038,58.9096308 225.953756,58.4098043 L225.953756,58.4098043 Z" id="Fill-1" fill="#010202"></path>
                <g id="Grupo">
                    <g transform="translate(90.4214, 0)">
                        <path d="M69.0713489,17.874194 C68.9528263,17.8900364 67.0799313,17.3972437 66.6356849,17.304161 C66.3882532,17.2522622 65.905814,17.2214318 65.7785484,17.1364675 C66.0373524,17.0037129 66.185325,17.2146281 66.3391481,16.8906792 C66.2774545,16.7617373 66.1608054,16.6644804 66.0245996,16.6119242 C65.841721,16.541389 65.6950632,16.5713977 65.502094,16.5809952 C65.2516713,16.5932879 65.1920484,16.5510851 64.9749541,16.5312328 C64.7418529,16.5099999 64.659288,16.5943068 64.4283233,16.5622603 L62.7192105,16.4686189 C62.5346556,16.469572 62.36052,16.419711 62.1686684,16.402751 C61.5039093,16.3440484 60.6438475,16.2821905 59.9980205,16.1541032 C59.7985435,16.114497 58.6755691,15.8563174 58.5051475,15.8738362 C58.2491372,15.9000979 58.410783,15.9133437 58.1940502,15.7268168 C57.9699877,15.7930462 58.1049116,15.9210678 57.7592369,15.8327509 C57.0863594,15.6607517 57.7199266,15.9011168 56.9401946,15.5827555 C56.806947,15.5284573 56.642869,15.4995662 56.4744195,15.4784319 L55.0224674,15.2084198 C54.8278549,15.1622071 54.6394545,15.1912626 54.5664871,15.0469384 C54.7487412,14.8937726 56.2344161,14.6914032 56.5986284,14.620145 C56.9528489,14.550826 57.2751214,14.4895268 57.618824,14.4092956 L59.8108362,14.1038844 C59.9989408,14.0802193 60.1461574,14.0320674 60.3428407,14.0210566 C60.5600008,14.0088625 60.7745643,14.0325275 60.981338,14.0041952 C61.6816933,13.9085159 62.5258798,13.8431082 63.1384771,13.6558253 C63.2011896,13.7194581 63.2064813,13.7211344 63.2474022,13.8125408 C63.5022293,13.7035499 64.0876117,13.649416 64.3588071,13.6567784 C64.8540978,13.6704516 64.7430362,14.0695043 65.2266915,14.6727012 C65.441255,14.9402811 65.3073829,14.8131798 65.5455129,15.0082854 C65.6656133,15.1066599 65.727011,15.2468098 65.844975,15.3642807 C65.9760533,15.4948989 66.0969096,15.5136337 66.2275278,15.6371852 C66.4009074,15.8012632 66.3225497,15.7701371 66.5943367,15.8836966 C67.1133911,16.1005938 66.6337457,16.4262518 67.2294815,16.5603211 C67.4072327,16.6003546 67.5977696,16.796479 67.7816999,16.9539505 C68.1317132,17.2535769 68.3515028,17.3793634 68.7638013,17.614601 C68.8791358,17.6805017 69.1068466,17.7558685 69.0713489,17.874194" id="Fill-2" fill="#CBDC58"></path>
                        <path d="M64.5733049,13.5754297 C64.3854632,13.5521261 64.3876982,13.5103178 64.2508351,13.4739656 L63.0915084,13.4872772 C62.6064726,13.5515017 62.0385104,13.5567934 61.5599167,13.6430724 C60.6214971,13.8121792 59.4914561,13.8408732 58.6109831,14.0532016 C58.1415268,14.1663011 57.5903273,14.0735142 57.1935097,14.2724324 C57.011913,14.3634444 56.2485822,14.3985805 55.7439899,14.5032 L54.3945865,14.8353659 C54.171543,14.9230253 54.0174569,14.8086112 53.7375843,14.8312573 C53.4932751,14.8510111 53.1803371,14.82212 53.0470895,14.6782888 C53.0699,14.472764 53.1911179,14.4485073 53.4078507,14.4790747 C53.837898,14.5396508 54.1671715,14.2398272 54.8636155,14.2868616 C55.020331,14.2975109 55.1608425,14.2381509 55.3152901,14.1959482 C55.5142084,14.1415185 55.9599338,14.1488809 56.2975887,14.0309499 C56.4455613,13.979314 56.5377894,13.8648998 56.6678488,13.7916695 C57.0315682,14.1747811 56.890235,13.9437177 57.3316876,13.8810381 C57.6530398,13.8353842 57.9642029,13.8377835 58.2625475,13.7536739 C58.2144613,13.7135089 58.3476103,13.6360715 57.8985323,13.7492695 C57.7210441,13.7941017 57.6857108,13.7887771 57.5181159,13.7352019 C57.6097853,13.4872115 57.8130093,13.5444021 58.1108608,13.469134 C58.3911935,13.3982373 58.4753361,13.3306603 58.8047082,13.347456 C59.0460921,13.3597487 59.2710091,13.2565097 59.5275125,13.2478325 C59.9290631,13.2343237 59.8586266,13.3051546 60.2937356,13.1939944 C61.1821955,12.966941 61.1256294,13.1125799 61.3147858,13.0985781 C61.4134561,13.0913142 61.5477884,13.0246246 61.6632214,13.005331 C61.9689284,12.9538923 62.1078294,12.969932 62.3973981,12.8777696 C62.7891869,12.7530348 62.6706642,12.9161596 63.1304572,12.8602508 L63.1521831,12.9745664 C63.1618792,13.0304752 63.1501124,13.0369173 63.1714767,13.0736968 C63.4533872,13.047731 63.67459,12.9852814 63.9900589,12.9530706 C64.2330534,12.9281894 64.4239518,12.6710287 64.7590758,12.7628953 L64.5733049,13.5754297 Z" id="Fill-3" fill="#CBDC58"></path>
                        <path d="M53.1419471,15.4450707 C53.1330727,15.7261594 53.097575,15.9899266 53.0000222,16.2242439 C52.2189098,16.1885491 52.3535379,16.2799555 52.0670259,16.2736119 C51.9069579,16.0887612 51.9538279,16.0911935 51.8956841,15.7935063 C51.8119359,15.3649381 51.6525252,15.3003849 52.6016598,15.3414702 C53.0646082,15.3614869 52.8253607,15.2980513 53.1419471,15.4450707" id="Fill-4" fill="#C1C7C3"></path>
                        <path d="M79.416709,12.3439245 C76.7394967,10.3211178 73.078178,9.17345931 67.7721024,10.5291405 C60.2302014,9.20783944 52.3965624,8.8370863 40.9432158,9.8829191 C36.4892479,10.0748693 36.4610141,12.4317812 38.6101662,12.7562888 C42.1994378,13.3831179 44.6281995,13.9284669 48.2173725,14.5553946 C45.6723232,16.0257858 44.1915128,16.5004024 45.7591609,18.4884675 C43.9630461,19.0149501 43.0274531,19.6333321 42.2388468,19.7686176 C41.3012818,19.9013722 40.3636182,20.034324 39.4260532,20.1670786 C37.3771491,20.5558106 39.4466615,23.0143509 41.7934828,22.1014699 C42.4593923,21.8253114 41.6191829,21.1759347 43.1600105,21.3052381 C53.3672256,21.5184212 62.2196469,19.8649542 70.7861151,18.5626181 C73.9958249,19.2516996 77.1803576,19.4979481 80.2341736,17.4246558 C83.0862119,22.4092148 86.8803509,21.9959959 87.7623029,19.1527664 C88.704338,15.2894727 85.2234328,9.2185216 81.0736271,10.2517988 C80.209391,10.6620923 79.6968774,11.396006 79.416709,12.3439245" id="Fill-5" fill="#5D9641"></path>
                        <path d="M64.950533,12.7382113 C64.2648041,14.321176 65.4354045,16.2876795 67.8515777,17.5993502 C60.5423177,16.963811 54.9484154,15.8836309 53.0470895,14.6782888 C56.7043654,13.6265726 60.7676948,12.9096517 64.950533,12.7382113" id="Fill-6" fill="#95C83D"></path>
                        <path d="M65.5311824,0.248727978 C70.1131718,-0.768509502 76.4508483,1.24571866 82.9595707,7.93577491 C84.3912103,9.58628373 83.1553336,10.5946468 81.5570852,8.66212895 C77.8267762,4.74266354 73.0984248,0.509964318 65.5825225,0.485641861 C65.3423218,0.467400018 65.3222722,0.31245939 65.5311824,0.248727978" id="Fill-7" fill="#95C83D"></path>
                        <path d="M54.8466555,7.77813909 C46.9679542,7.20728444 45.8039931,7.49442091 35.1223587,7.58089711 C29.5985314,7.76630655 30.458396,9.50782737 33.5496488,9.40143305 C39.5358986,8.63455254 48.2329192,8.3645404 55.245248,8.27257521 C55.7192072,8.26633026 55.5271584,7.8274085 54.8466555,7.77813909" id="Fill-8" fill="#5D9641"></path>
                        <path d="M62.241077,25.4976081 C66.1941666,24.2691596 69.2975478,22.6209845 72.2512144,20.8989545 C73.4619469,20.1936361 73.4652995,21.0849884 72.1394955,21.9474825 C67.7606314,24.4821455 63.4080291,26.4608103 58.4444071,28.4697138 C55.9580932,29.2706129 54.7902866,27.9016529 55.5791559,26.9154759 C56.074085,26.3376203 56.086575,26.8554586 57.8770036,26.6073366 C59.4471826,26.3896178 60.6067722,25.9791927 62.241077,25.4976081" id="Fill-9" fill="#95C83D"></path>
                        <path d="M40.2826638,17.4480251 C42.3622011,17.2083831 42.5710784,17.4106539 44.4462413,17.873175 C42.1436276,18.8549806 42.4406574,18.9507585 39.7606184,19.1549028 C38.6922381,19.1526678 38.3085677,19.4744802 37.8465396,19.8522671 C36.1263503,20.2314674 34.6486952,18.9198296 35.8761905,17.6822438 C36.4467822,17.4250173 36.9638645,17.284966 37.7265379,17.401155 C38.9933764,17.6867138 38.9524883,17.8158529 40.2826638,17.4480251" id="Fill-10" fill="#5D9641"></path>
                        <path d="M10.1629487,24.0627146 C23.4521149,20.7400697 28.4602732,19.8799421 31.254069,19.6783287 C33.3675262,19.6352714 32.3378974,20.3797029 31.5022567,20.4321605 C20.1993806,22.2550301 10.5626587,25.676674 1.56459842,30.3618038 C-0.620412834,31.5167261 -0.497715897,30.1584154 1.81272035,28.3260469 C3.06743047,27.2902061 3.04182615,26.9798318 4.29653628,25.9439909 C5.99595295,24.3566548 7.31662952,24.7315822 10.1629487,24.0627146" id="Fill-11" fill="#95C83D"></path>
                        <path d="M16.3339505,27.7835247 C22.7525156,25.0053084 29.1690099,23.0470548 35.5842881,21.543401 C37.0544164,21.3219352 36.9513746,21.8633399 35.7826477,22.2555889 C28.0808758,24.8470152 20.6712035,27.9741601 13.6523339,31.8174042 C11.5198788,33.110603 8.74826909,34.7124669 6.6158798,36.0056657 C4.15454571,37.2964322 6.04308593,35.0568269 7.39229208,33.4603534 C8.04587596,32.1410573 7.27692475,32.1845747 10.691239,30.4218211 L16.3339505,27.7835247 Z" id="Fill-12" fill="#95C83D"></path>
                        <path d="M58.1567776,24.0742513 C62.2417344,23.8410515 65.2192304,22.6718644 68.2946737,21.4378284 C69.5744623,21.0230319 69.3958565,21.8599874 67.9760495,22.3988613 C63.5409809,24.4073375 59.1713199,25.7109555 53.7965499,25.7259762 C51.6805618,25.5682418 50.9659746,24.2727094 51.9071551,23.5083269 C52.7668225,22.810864 52.4897437,23.8984394 54.9135423,24.2225854 C56.4221591,24.4243961 56.5252995,24.1929383 58.1567776,24.0742513" id="Fill-13" fill="#95C83D"></path>
                        <path d="M86.6335437,18.0384363 C86.598309,17.4990694 86.3586013,17.8323528 86.2950671,18.0327501 C85.3451765,19.636849 83.607567,18.8153087 81.7029871,16.750102 C81.4322519,16.4357507 80.9820563,16.2734476 81.2057572,16.6811446 C83.2802656,20.674399 86.4358415,20.9065799 86.6335437,18.0384363" id="Fill-14" fill="#95C83D"></path>
                    </g>
                    <path d="M0,51.3481732 L0,52.2095498 L0.686649268,52.2095498 C1.14746123,51.824729 1.8753272,51.3672696 2.24463414,50.9439274 C2.14645687,50.7136858 1.87624751,50.3444774 1.65366416,50.1756336 C1.20945063,50.3384954 0.489604494,51.0612339 0,51.3481732 Z M57.5946918,23.5274562 L59.5300034,23.9631897 C59.6663078,23.5059275 59.8344943,23.2744697 59.7245502,22.9645228 C59.3470262,22.8097465 58.1513802,22.506406 57.7288597,22.5571873 L57.5946918,23.5274562 Z M12.6330515,42.1818607 C12.805971,42.564052 12.9460224,42.6174299 13.0948167,43.0066878 C13.5917836,42.8466198 14.3852874,42.1516877 14.855171,41.8659317 C14.6938868,41.5480306 14.4886249,41.295833 14.3209315,41.0216138 C13.7802498,41.2620117 13.1032967,41.8024961 12.6330515,42.1818607 Z M2.51500783,49.445664 C2.65505917,49.8123744 2.85667263,50.0279568 3.11271579,50.2890288 C3.43469254,50.1301769 4.4991616,49.3643153 4.72835146,49.0942045 C4.582844,48.7895493 4.38622652,48.6033182 4.22701302,48.2936012 C3.56596807,48.5967774 3.10942897,49.1367031 2.51500783,49.445664 Z M79.1606588,27.1892021 L79.5842968,28.0529781 C80.009644,27.9003711 81.1253546,27.4024509 81.3971087,27.0918466 L80.9631172,26.237471 C80.5054935,26.436948 79.4679435,26.9121233 79.1606588,27.1892021 Z M33.7668348,28.9328594 L34.2124616,29.8319686 C34.6664699,29.6862311 35.6717762,29.1254341 36.0489387,28.9096544 L35.6162619,28.0549173 C35.0551691,28.1554611 34.2583128,28.6878271 33.7668348,28.9328594 Z M7.53164615,45.8186597 C7.74108223,46.1331097 7.87843838,46.3248298 8.15029114,46.6234701 L9.33131079,45.7781332 C9.39737585,45.7321835 9.50209389,45.6600707 9.55649073,45.6110643 L9.75291101,45.3946273 C9.57913691,45.0977947 9.40138576,44.9061403 9.2442101,44.616966 C8.7933572,44.8235097 7.89881665,45.4913583 7.53164615,45.8186597 Z M108.762437,17.5761453 L108.819266,18.6100469 L110.835466,18.4738411 L110.828005,17.5176399 C110.303659,17.3446218 109.345486,17.5370979 108.762437,17.5761453 Z M96.4424222,19.984956 L96.6995828,20.8965222 L98.6802854,20.3717817 L98.4399861,19.3808387 C97.9987307,19.4554495 96.7203555,19.7568508 96.4424222,19.984956 Z M54.5663815,23.3032623 L56.583995,23.3679469 L56.653314,22.3490331 L54.5447871,22.2497055 L54.5663815,23.3032623 Z M67.1075007,30.175474 C67.2111998,30.4533088 67.9247024,31.791044 68.0897993,31.9304051 L68.9472316,31.5098566 C68.7027581,30.9395607 68.284609,30.1129587 67.9580307,29.6595092 L67.1075007,30.175474 Z M65.3495786,27.7732698 L66.5186671,29.3055517 C66.8197068,29.1752951 67.0674343,28.9573791 67.328605,28.7468912 C67.149802,28.3046169 66.3427566,27.3103214 66.0471401,27.1031204 C65.7808421,27.3123592 65.5100082,27.4911622 65.3495786,27.7732698 Z M36.5788724,27.5786573 L36.9779251,28.4449312 L38.8259388,27.6081729 L38.4601488,26.6801068 C37.9904953,26.8014233 36.8725496,27.3009211 36.5788724,27.5786573 Z M105.613862,17.9163967 L105.747931,18.9312019 L107.786383,18.7070409 L107.69192,17.6836571 L105.613862,17.9163967 Z M113.954789,17.3562571 L111.902828,17.3562571 L111.893329,18.3938728 L113.942595,18.3878251 L113.954789,17.3562571 Z M102.51196,18.4276942 L102.708479,19.437865 L104.733784,19.0936037 L104.573913,18.0881987 L102.51196,18.4276942 Z M17.7674565,38.6770932 L18.2733637,39.4598162 C18.64083,39.343923 19.6798591,38.6051776 20.0059443,38.3633992 L19.4735783,37.5269368 L18.2090735,38.3077863 C18.1188832,38.3675078 18.0703369,38.3936051 17.9788647,38.4695306 C17.9621019,38.4833024 17.9398173,38.5026946 17.9241721,38.5167622 L17.818961,38.6216774 C17.8072271,38.6333128 17.7839564,38.6580954 17.7674565,38.6770932 Z M10.061872,43.9768909 C10.1959413,44.2681359 10.4735789,44.6384618 10.7279129,44.8037559 C11.1298579,44.3609228 11.8794169,44.0474918 12.3064075,43.6061707 C12.1069305,43.3466763 11.9465009,43.0874778 11.6980174,42.804417 L10.061872,43.9768909 Z M99.4539697,19.0927491 L99.6810231,20.0992715 L101.658735,19.6633079 L101.501822,18.6575414 L99.4539697,19.0927491 Z M68.4963787,32.9332134 L68.9826307,34.1664935 L70.5867296,33.1981638 L70.0759909,32.3291948 C69.8859141,32.4149807 69.7587471,32.5119747 69.6626734,32.5418848 C69.1420414,32.7040893 69.8393399,32.5000436 69.2680251,32.5726165 C69.0113246,32.6052546 68.6830043,32.7791931 68.4963787,32.9332134 Z M73.6654268,30.1665339 L74.1470115,31.0556512 C74.4219538,30.9571781 75.7838143,30.1884241 75.920776,30.0125136 L75.4586822,29.1680313 L73.6654268,30.1665339 Z M22.9933337,35.2697141 C23.1382167,35.5511644 23.2796485,35.8412919 23.539603,36.0713363 L25.2092082,35.0576486 L24.7421513,34.167611 C24.3877994,34.3028964 23.1726954,35.049563 22.9933337,35.2697141 Z M20.3528352,36.9174949 C20.4340525,37.1206203 20.4361232,37.126668 20.5831425,37.3503689 C20.6858228,37.5065256 20.5809075,37.3664743 20.7068584,37.5248003 L20.9133363,37.7497831 C21.2386656,37.5964201 21.5105513,37.3833685 21.7835216,37.2124868 L22.5888907,36.632692 L22.0910692,35.8503306 C21.6821561,35.9791082 20.7024869,36.6810411 20.3528352,36.9174949 Z M60.500831,24.2664645 L62.2422861,25.1624841 L62.7785634,24.2679435 C62.1110763,24.0100597 61.5931723,23.5556571 60.7978608,23.3733372 L60.500831,24.2664645 Z M63.1335398,25.7288686 L64.5880885,26.9754603 C64.8699332,26.8116782 65.1364942,26.5549119 65.3027086,26.1749557 C64.8019289,25.854458 64.2784044,25.246791 63.7125786,24.9374685 L63.1335398,25.7288686 Z M93.44675,20.8573762 L93.7495646,21.8394776 L95.7014418,21.2243824 L95.4302464,20.2496435 L93.44675,20.8573762 Z M70.9878201,31.7387507 C71.1022342,32.0989531 71.3105528,32.3696226 71.4752881,32.6209985 L73.2486911,31.6074751 C73.0927973,31.2777744 72.9045283,30.9912624 72.7307542,30.7292701 L70.9878201,31.7387507 Z M28.3100586,31.9651796 C28.4467574,32.3310354 28.625626,32.506683 28.754305,32.8559732 C29.4136737,32.6130773 29.9783491,32.1017469 30.5762214,31.9062798 L30.0948339,30.9700295 L28.3100586,31.9651796 Z M39.4002446,26.2114722 L39.7982455,27.1630062 L41.6597023,26.3898807 L41.3298701,25.4349942 L39.4002446,26.2114722 Z M45.2460815,23.9618092 C45.3271345,24.286777 45.4326085,24.7070625 45.6201543,24.9274108 L47.4770096,24.3817989 L47.2618873,23.3988758 L45.2460815,23.9618092 Z M5.04934216,47.633871 C5.13272875,47.8528389 5.1720391,47.9197256 5.29194224,48.0813714 L5.58460057,48.3899379 C5.59633451,48.4005872 5.62157728,48.4231348 5.64169261,48.4375639 L7.2341562,47.2444159 C7.04848382,46.9099492 6.86475066,46.7366681 6.73485559,46.4457847 C6.40354428,46.5792953 5.31412827,47.3695451 5.04934216,47.633871 Z M90.492163,21.9479426 L90.8501962,22.8988193 L92.7767649,22.2047089 L92.4432185,21.2567247 L90.492163,21.9479426 Z M51.3762611,22.5036122 L51.5321549,23.4898878 L53.5438522,23.3313317 L53.4863657,22.3195832 L51.3762611,22.5036122 Z M81.9193185,25.7418844 L82.3495959,26.6481589 L84.1731886,25.7994695 C84.1160965,25.4618146 83.9922492,25.1633058 83.7504708,24.8872459 L81.9193185,25.7418844 Z M15.1685691,40.400668 L15.7235813,41.2371304 C16.3272384,40.913839 16.844978,40.4166748 17.4176076,40.144329 L16.8637129,39.2530753 L15.1685691,40.400668 Z M84.7403291,24.3799583 L85.1655448,25.3221577 L87.0176671,24.5018993 L86.6507596,23.5824118 L84.7403291,24.3799583 Z M31.0241819,30.411369 L31.4775656,31.310281 C31.8056887,31.1887673 32.1703613,30.9788711 32.43449,30.8330678 L33.1652155,30.3971042 C33.1798747,30.3860276 33.2083714,30.3605876 33.2200068,30.3513845 C33.2317407,30.3421486 33.2568191,30.3210801 33.2739763,30.3045145 L32.7803619,29.4799503 L31.0241819,30.411369 Z M42.3080601,25.0106002 L42.6592238,25.9650266 L44.5686353,25.2837677 L44.2577352,24.3313134 L42.3080601,25.0106002 Z M76.3784326,28.6373415 L76.8411181,29.5256042 L78.653174,28.5824517 L78.2150082,27.6801214 L76.3784326,28.6373415 Z M87.6116281,23.1089127 L87.9902696,24.062616 L89.8724662,23.3025392 L89.5210396,22.3765109 L87.6116281,23.1089127 Z M25.6450404,33.6146366 L26.1297146,34.4504746 L27.891548,33.4101308 C27.8338643,33.2910493 27.7315785,33.0940046 27.6693262,32.988432 C27.6175259,32.9005753 27.5684208,32.8199168 27.5164562,32.7530957 C27.4024036,32.6065365 27.4226176,32.636841 27.3331832,32.5589434 L25.6450404,33.6146366 Z M48.2777115,23.1078938 L48.5185696,24.0722135 L50.4757714,23.7003757 L50.3282919,22.7137056 L48.2777115,23.1078938 Z" id="Fill-15" fill="#5D9641"></path>
                </g>
            </g>
        </g>
    </g>
</svg>