<?xml version="1.0" encoding="UTF-8"?>
<svg width="60px" height="60px" viewBox="0 0 60 60" version="1.1" xmlns="http://www.w3.org/2000/svg" xmlns:xlink="http://www.w3.org/1999/xlink">
    <title>ic_contact_information</title>
    <g id="Página-1" stroke="none" stroke-width="1" fill="none" fill-rule="evenodd">
        <g id="Aviónica-Saltamontes----Web-Quote---3" transform="translate(-690, -123)">
            <g id="ic_contact_information" transform="translate(690, 123)">
                <rect id="Rectángulo-Copia-6" fill="#000E25" x="0" y="0" width="60" height="60" rx="30"></rect>
                <g id="profile-2user" transform="translate(15, 15)">
                    <path d="M5.3125,8.4375 C5.3125,11.6499999 7.82500029,14.2499997 11.1000001,14.3624997 C11.2000001,14.3499997 11.3000005,14.3499997 11.3750005,14.3624997 C11.4000005,14.3624997 11.4124995,14.3624997 11.4374995,14.3624997 C11.4499995,14.3624997 11.4500001,14.3624997 11.4625001,14.3624997 C14.6625,14.2499997 17.175,11.6499999 17.1875,8.4375 C17.1875,5.16250014 14.5249999,2.5 11.25,2.5 C7.97500014,2.5 5.3125,5.16250014 5.3125,8.4375 Z" id="Vector" fill="#FFFFFF" fill-rule="nonzero" opacity="0.400000006"></path>
                    <path d="M4.91367191,17.6873535 C3.32617193,18.7498535 2.45117188,20.1873529 2.45117188,21.7248529 C2.45117188,23.2623529 3.32617193,24.6873542 4.90117192,25.7373542 C6.65117189,26.9123542 8.95117188,27.4998546 11.2511718,27.4998546 C13.5511719,27.4998546 15.8511718,26.9123542 17.6011717,25.7373542 C19.1761717,24.6748541 20.051173,23.2498547 20.051173,21.6998547 C20.038673,20.1623547 19.1761717,18.7373535 17.6011717,17.6873535 C14.1136718,15.3623535 8.42617184,15.3623535 4.91367191,17.6873535 Z" id="Vector" fill="#FFFFFF" fill-rule="nonzero"></path>
                    <path d="M21.0742199,14.0126246 C21.0617199,14.0126246 21.0617194,14.0126246 21.0492194,14.0126246 L21.0117185,14.0126246 C20.9367185,14.0126246 20.8617184,14.012624 20.7992184,14.037624 C19.5867184,14.100124 18.4742188,13.7126241 17.6367188,13.0001241 C18.9242187,11.8501241 19.6617187,10.1251245 19.5117187,8.25012445 C19.4242187,7.23762445 19.0742194,6.31262477 18.5492194,5.52512478 C19.0242194,5.28762478 19.57422,5.1376249 20.1367188,5.0876249 C22.58672,4.8751249 24.7742189,6.70012474 24.9867189,9.17512476 C25.1867189,11.6001248 23.4617199,13.7251246 21.0742199,14.0126246 Z" id="Vector" fill="#FFFFFF" fill-rule="nonzero" opacity="0.400000006"></path>
                    <path d="M25.3127933,23.7123841 C24.0627933,24.3998841 22.487793,24.724885 20.925293,24.687385 C21.825293,23.874885 22.3502921,22.8623854 22.4502921,21.7873853 C22.5752921,20.2373853 21.8377943,18.7498852 20.3627944,17.5623852 C19.5252944,16.8998852 18.550293,16.3748848 17.487793,15.9873848 C20.250293,15.1873849 23.7252939,15.724885 25.8627939,17.449885 C27.0127939,18.374885 27.600293,19.5373852 27.487793,20.7373852 C27.387793,21.9498852 26.6127932,22.9998841 25.3127933,23.7123841 Z" id="Vector" fill="#FFFFFF" fill-rule="nonzero"></path>
                    <path d="M30,0 L30,30 L0,30 L0,0 L30,0 Z" id="Vector" opacity="0"></path>
                </g>
            </g>
        </g>
    </g>
</svg>