<?xml version="1.0" encoding="UTF-8"?>
<svg width="40px" height="40px" viewBox="0 0 40 40" version="1.1" xmlns="http://www.w3.org/2000/svg" xmlns:xlink="http://www.w3.org/1999/xlink">
    <title>ic_email</title>
    <g id="Página-1" stroke="none" stroke-width="1" fill="none" fill-rule="evenodd">
        <g id="Aviónica-Saltamontes----Web-A" transform="translate(-657, -3010)">
            <g id="ic_email" transform="translate(657, 3010)">
                <circle id="Óvalo" fill="#A89132" cx="20" cy="20" r="20"></circle>
                <g id="sms-tracking" transform="translate(11, 11)">
                    <path d="M18,0 L18,18 L0,18 L0,0 L18,0 Z" id="Vector" opacity="0"></path>
                    <path d="M0.75,13.5 C0.75,15.5775 2.43000001,17.25 4.5,17.25 C6.56999999,17.25 8.25,15.57 8.25,13.5 C8.25,11.43 6.57749999,9.75 4.5,9.75 C2.43000001,9.75 0.75,11.4225 0.75,13.5 Z M4.5,11.97 C4.785,11.97 5.00999987,12.2024995 5.00999987,12.4799995 C5.00999987,12.7574995 4.785,12.9899998 4.5,12.9899998 L2.97000003,12.9899998 C2.68500003,12.9899998 2.45999998,12.7574995 2.45999998,12.4799995 C2.45999998,12.2024995 2.68500003,11.97 2.97000003,11.97 L4.5,11.97 Z M2.97000003,15.0300007 C2.68500003,15.0300007 2.45999998,14.7975005 2.45999998,14.5200005 C2.45999998,14.2425005 2.69250003,14.0100002 2.97000003,14.0100002 L6.03750014,14.0100002 C6.32250014,14.0100002 6.54749966,14.2425005 6.54749966,14.5200005 C6.54749966,14.7975005 6.31499997,15.0300007 6.02999997,15.0300007 L2.97000003,15.0300007 Z" id="Vector" fill="#FFFFFF"></path>
                    <path d="M5.25,2.25 C3,2.25 1.5,3.375 1.5,6 L1.5,8.35500026 C1.5,8.90250027 2.06250004,9.24749997 2.56500006,9.02999997 C3.39000008,8.66999998 4.32749999,8.53500012 5.30999994,8.69250011 C7.27499986,9.01500012 8.87999994,10.5675005 9.27749991,12.5175004 C9.38999992,13.0875004 9.40499969,13.6424997 9.32999969,14.1749997 C9.26999969,14.6174997 9.63000025,15.0075002 10.0725002,15.0075002 L12.75,15.0075002 C15,15.0075002 16.5,13.8825002 16.5,11.2575002 L16.5,6 C16.5,3.375 15,2.25 12.75,2.25 L5.25,2.25 Z M10.7550001,8.31750011 C10.2600001,8.71500009 9.62999998,8.91000009 9,8.91000009 C8.37000002,8.91000009 7.73249987,8.71500009 7.24499989,8.31750011 L4.89750016,6.44250011 C4.65750016,6.24750012 4.61999989,5.88750015 4.80749989,5.64750016 C5.00249988,5.40750016 5.35500003,5.36249989 5.59500003,5.55749989 L7.94250011,7.43249989 C8.51250011,7.8899999 9.47999972,7.8899999 10.0499997,7.43249989 L12.3975005,5.55749989 C12.6375005,5.36249989 12.9974999,5.40000015 13.1849999,5.64750016 C13.3799999,5.88750015 13.3424995,6.24750012 13.1024995,6.44250011 L10.7550001,8.31750011 Z" id="Vector" fill="#FFFFFF"></path>
                </g>
            </g>
        </g>
    </g>
</svg>