<?xml version="1.0" encoding="UTF-8"?>
<svg width="276px" height="21px" viewBox="0 0 276 21" version="1.1" xmlns="http://www.w3.org/2000/svg" xmlns:xlink="http://www.w3.org/1999/xlink">
    <title>ic_logo_saltamontes_text</title>
    <g id="Página-1" stroke="none" stroke-width="1" fill="none" fill-rule="evenodd">
        <g id="Aviónica---Web-Home---1" transform="translate(-340.000000, -38.000000)" fill="#010202">
            <g id="logo_saltamontes_text" transform="translate(340.000000, 38.000000)">
                <path d="M5.22407932,13.3732382 L12.3564702,13.3732382 L8.77528048,6.20077884 L5.22407932,13.3732382 Z M0,19.6240398 L7.93873684,3.42589319 L9.61169865,3.42589319 L17.6406522,19.6240398 L15.4518197,19.6240398 L13.2530329,15.2665346 L4.30250527,15.2665346 L2.15871841,19.6240398 L0,19.6240398 Z M24.0517694,19.6240398 L23.0399787,19.6240398 L16.7491086,7.09232247 L18.8326673,7.09232247 L23.5408759,16.4685877 L28.1789439,7.09232247 L30.3326851,7.09232247 L24.0517694,19.6240398 Z M32.801913,19.6240398 L32.801913,7.06220841 L34.7854261,7.06220841 L34.7854261,19.6240398 L32.801913,19.6240398 Z M45.6944136,18.1815343 C47.3672918,18.1815343 48.7346376,17.7307853 49.791474,16.8241428 C50.8483104,15.9226029 51.3742191,14.7705726 51.3742191,13.3732382 C51.3742191,11.9857326 50.8433332,10.838805 49.7815197,9.92718531 C48.7195806,9.02071011 47.3572119,8.56481662 45.6944136,8.56481662 C44.0314898,8.56481662 42.6740983,9.01560745 41.6222391,9.92220812 C40.5705054,10.823748 40.0445967,11.9757783 40.0445967,13.3732382 C40.0445967,14.7705726 40.5705054,15.9226029 41.6222391,16.8241428 C42.6740983,17.7307853 44.0314898,18.1815343 45.6944136,18.1815343 Z M45.6944136,20.0146862 C43.4654709,20.0146862 41.6273418,19.3835874 40.1898134,18.1214316 C38.752285,16.8642112 38.031095,15.2814661 38.031095,13.3732382 C38.031095,11.4598239 38.7473079,9.8771625 40.1797336,8.62993829 C41.6172619,7.38279773 43.4555165,6.76165331 45.6944136,6.76165331 C47.9533031,6.76165331 49.8015539,7.38279773 51.2389568,8.6249611 C52.671508,9.86708265 53.3877208,11.4498696 53.3877208,13.3732382 C53.3877208,15.291546 52.6665308,16.8742911 51.2290024,18.1315115 C49.791474,19.3886064 47.9482005,20.0146862 45.6944136,20.0146862 Z M45.238562,5.13892343 L43.8912503,5.13892343 L46.9515085,0 L49.1804095,0 L45.238562,5.13892343 Z M56.6032756,19.6240398 L56.6032756,7.09232247 L57.6301234,7.09232247 L65.5888945,15.8975915 L65.5888945,7.09232247 L67.5122631,7.09232247 L67.5122631,19.6240398 L66.4854571,19.6240398 L58.5266861,10.8487594 L58.5266861,19.6240398 L56.6032756,19.6240398 Z M71.834719,19.6240398 L71.834719,7.06220841 L73.8182321,7.06220841 L73.8182321,19.6240398 L71.834719,19.6240398 Z M91.4037588,16.5586789 C90.6925231,17.680637 89.755892,18.5372149 88.5939074,19.1282452 C87.4368999,19.7192337 86.1145996,20.0146862 84.6370028,20.0146862 C82.4381742,20.0146862 80.6250565,19.3936672 79.1976079,18.146443 C77.7751366,16.8993025 77.0639009,15.3165574 77.0639009,13.4032268 C77.0639009,11.4849608 77.7751366,9.9021739 79.1976079,8.64499532 C80.6250565,7.38777492 82.4381742,6.76165331 84.6370028,6.76165331 C86.0094514,6.76165331 87.2515729,7.01716279 88.368512,7.53299163 C89.485451,8.04388512 90.3820136,8.77017782 91.0681124,9.7068089 L89.5105042,10.7886567 C88.9945081,10.077421 88.3133865,9.52645911 87.4668885,9.14078995 C86.6204741,8.75512079 85.6787822,8.56481662 84.64198,8.56481662 C83.0341817,8.56481662 81.7069043,9.02071011 80.6550451,9.93726515 C79.6033113,10.8487594 79.0774026,11.9958125 79.0774026,13.3732382 C79.0774026,14.7505384 79.6033113,15.8975915 80.6601477,16.8092112 C81.7169841,17.7258081 83.0442615,18.1815343 84.64198,18.1815343 C85.7539419,18.1815343 86.7407212,17.961116 87.5921964,17.5254241 C88.443588,17.0846294 89.1899149,16.4035078 89.8360707,15.4768311 L91.4037588,16.5586789 Z M97.3940738,14.7856297 L102.292587,14.7856297 L99.8583245,9.98231077 L97.3940738,14.7856297 Z M92.8512415,19.6240398 L99.2272675,7.09232247 L100.459435,7.09232247 L106.885609,19.6240398 L104.786993,19.6240398 L103.159161,16.4384736 L96.5425986,16.4384736 L94.9248459,19.6240398 L92.8512415,19.6240398 Z M117.519053,17.1848005 L118.691034,15.4468425 C119.838087,16.3333253 121.030185,17.0094698 122.267246,17.4803785 C123.504391,17.946059 124.731622,18.1815343 125.94363,18.1815343 C127.441303,18.1815343 128.658413,17.8660476 129.590067,17.2298462 C130.526656,16.5937702 130.992378,15.7773862 130.992378,14.7806525 C130.992378,13.98928 130.656857,13.3381469 129.98569,12.8272953 C129.314523,12.3164018 128.387846,12.0108695 127.205827,11.9106984 C126.920329,11.8805843 126.509649,11.8505958 125.973744,11.8254589 C123.309151,11.6351547 121.495908,11.3246452 120.524311,10.8838506 C119.773007,10.5182157 119.196908,10.0524096 118.806262,9.48141349 C118.415615,8.90544016 118.220209,8.26430334 118.220209,7.54804866 C118.220209,6.24582446 118.801285,5.17393103 119.968246,4.32751667 C121.130273,3.48599584 122.642961,3.06531908 124.501124,3.06531908 C125.853539,3.06531908 127.185793,3.28561183 128.503116,3.73142548 C129.820397,4.1771973 131.072515,4.83841016 132.25466,5.70991957 L131.082595,7.3927521 C130.080884,6.586448 129.034002,5.98036061 127.93212,5.56968004 C126.830238,5.16397666 125.698242,4.95861547 124.536216,4.95861547 C123.314128,4.95861547 122.307315,5.19906791 121.510965,5.67482832 C120.71955,6.15058873 120.323927,6.74672175 120.323927,7.4629346 C120.323927,7.74345549 120.389007,8.00394215 120.514231,8.23925012 C120.639414,8.47472538 120.839798,8.70012079 121.100242,8.90544016 C121.766433,9.40127661 123.203877,9.72186593 125.417721,9.85712828 C126.434489,9.91723093 127.225862,9.97733359 127.781926,10.0474324 C129.424648,10.2327176 130.726915,10.7586681 131.688682,11.6301775 C132.645348,12.5017288 133.126085,13.5685195 133.126085,14.8407551 C133.126085,16.3533596 132.469975,17.6004583 131.152652,18.5772833 C129.835455,19.5539828 128.107493,20.0448002 125.973744,20.0448002 C124.360885,20.0448002 122.858277,19.8093668 121.475874,19.343519 C120.088494,18.8727357 118.77117,18.1565229 117.519053,17.1848005 Z M138.846085,14.7856297 L143.744598,14.7856297 L141.310335,9.98231077 L138.846085,14.7856297 Z M134.303253,19.6240398 L140.679279,7.09232247 L141.911446,7.09232247 L148.33762,19.6240398 L146.239004,19.6240398 L144.611172,16.4384736 L137.99461,16.4384736 L136.376857,19.6240398 L134.303253,19.6240398 Z M150.205863,19.6240398 L150.205863,7.09232247 L152.159262,7.09232247 L152.159262,17.8208765 L161.475383,17.8208765 L161.475383,19.6240398 L150.205863,19.6240398 Z M164.345379,19.6240398 L164.345379,8.83525766 L159.056178,8.83525766 L159.056178,7.09232247 L171.587895,7.09232247 L171.587895,8.83525766 L166.298736,8.83525766 L166.298736,19.6240398 L164.345379,19.6240398 Z M174.603108,14.7856297 L179.501621,14.7856297 L177.067358,9.98231077 L174.603108,14.7856297 Z M170.060276,19.6240398 L176.43626,7.09232247 L177.668469,7.09232247 L184.094601,19.6240398 L181.995985,19.6240398 L180.368195,16.4384736 L173.751633,16.4384736 L172.13388,19.6240398 L170.060276,19.6240398 Z M185.962886,19.6240398 L185.962886,7.09232247 L187.590677,7.09232247 L192.719562,14.4249719 L197.858527,7.09232247 L199.48636,7.09232247 L199.48636,19.6240398 L197.532961,19.6240398 L197.532961,10.6134096 L192.719562,17.5804241 L187.916243,10.6134096 L187.916243,19.6240398 L185.962886,19.6240398 Z M210.360256,18.1815343 C212.033134,18.1815343 213.40048,17.7307853 214.457317,16.8241428 C215.514153,15.9226029 216.040062,14.7705726 216.040062,13.3732382 C216.040062,11.9857326 215.509176,10.838805 214.447362,9.92718531 C213.385423,9.02071011 212.023055,8.56481662 210.360256,8.56481662 C208.697332,8.56481662 207.339941,9.01560745 206.288082,9.92220812 C205.236348,10.823748 204.710439,11.9757783 204.710439,13.3732382 C204.710439,14.7705726 205.236348,15.9226029 206.288082,16.8241428 C207.339941,17.7307853 208.697332,18.1815343 210.360256,18.1815343 Z M210.360256,20.0146862 C208.131313,20.0146862 206.293184,19.3835874 204.855656,18.1214316 C203.418128,16.8642112 202.696938,15.2814661 202.696938,13.3732382 C202.696938,11.4598239 203.41315,9.8771625 204.845576,8.62993829 C206.283105,7.38279773 208.121359,6.76165331 210.360256,6.76165331 C212.619146,6.76165331 214.467397,7.38279773 215.904799,8.6249611 C217.337351,9.86708265 218.053563,11.4498696 218.053563,13.3732382 C218.053563,15.291546 217.332373,16.8742911 215.894845,18.1315115 C214.457317,19.3886064 212.614043,20.0146862 210.360256,20.0146862 Z M221.269118,19.6240398 L221.269118,7.09232247 L222.295966,7.09232247 L230.254737,15.8975915 L230.254737,7.09232247 L232.178106,7.09232247 L232.178106,19.6240398 L231.1513,19.6240398 L223.192529,10.8487594 L223.192529,19.6240398 L221.269118,19.6240398 Z M239.445675,19.6240398 L239.445675,8.83525766 L234.156516,8.83525766 L234.156516,7.09232247 L246.688234,7.09232247 L246.688234,8.83525766 L241.399074,8.83525766 L241.399074,19.6240398 L239.445675,19.6240398 Z M248.636655,19.6240398 L248.636655,7.09232247 L260.38708,7.09232247 L260.38708,8.92547438 L250.590013,8.92547438 L250.590013,12.0509379 L257.021164,12.0509379 L257.021164,13.8540176 L250.590013,13.8540176 L250.590013,17.8208765 L260.92792,17.8208765 L260.92792,19.6240398 L248.636655,19.6240398 Z M262.640992,18.0212605 L263.59268,16.378371 C264.45411,16.9544279 265.395718,17.4052188 266.412486,17.7258081 C267.434231,18.0513746 268.405954,18.2116483 269.337566,18.2116483 C270.454505,18.2116483 271.356045,17.9861275 272.042269,17.5304013 C272.728493,17.0746751 273.069117,16.4935991 273.069117,15.7823634 C273.069117,15.0661506 272.753505,14.5402419 272.127383,14.1896221 C271.501303,13.8440214 270.514649,13.6536336 269.162235,13.6135652 C266.878292,13.5835766 265.310604,13.3181127 264.459087,12.8221926 C263.607612,12.321379 263.181874,11.4949152 263.181874,10.3429685 C263.181874,9.26609792 263.64768,8.39956569 264.584312,7.74345549 C265.520901,7.08721981 266.778121,6.76165331 268.355889,6.76165331 C269.432802,6.76165331 270.474581,6.91201451 271.491307,7.21750497 C272.503098,7.51806007 273.479797,7.9688509 274.421406,8.56481662 L273.434752,10.187672 C272.653334,9.66176328 271.811896,9.25601807 270.910273,8.96554282 C270.008733,8.68008657 269.147304,8.53482803 268.325775,8.53482803 C267.374254,8.53482803 266.607851,8.70012079 266.031794,9.03066448 C265.455821,9.36631084 265.165346,9.79702562 265.165346,10.3328887 C265.165346,10.8888278 265.455821,11.2845768 266.036897,11.5199266 C266.617847,11.7554018 267.629596,11.87063 269.067125,11.87063 C271.065569,11.87063 272.56822,12.2061509 273.584946,12.8822953 C274.601714,13.5585652 275.112607,14.5602761 275.112607,15.8924889 C275.112607,17.0746751 274.596736,18.0563518 273.564911,18.8427471 C272.533086,19.6240398 271.195771,20.0146862 269.553007,20.0146862 C268.335855,20.0146862 267.133802,19.8394809 265.931707,19.4938802 C264.734631,19.1482794 263.637726,18.6572947 262.640992,18.0212605 L262.640992,18.0212605 Z" id="Fill-1"></path>
            </g>
        </g>
    </g>
</svg>