<?xml version="1.0" encoding="UTF-8"?>
<svg width="340px" height="508px" viewBox="0 0 340 508" version="1.1" xmlns="http://www.w3.org/2000/svg" xmlns:xlink="http://www.w3.org/1999/xlink">
    <title>img_baja</title>
    <g id="Página-1" stroke="none" stroke-width="1" fill="none" fill-rule="evenodd">
        <path d="M88.7639374,0.926980368 L97.4537892,10.7800881 C96.0151813,12.4090408 96.3996321,14.6515134 98.6071414,17.5075058 C99.9316471,19.2211013 100.545715,22.8586323 101.137885,26.6779692 L101.256232,27.4437445 C102.105211,32.9417745 103.003509,38.5747074 105.978676,39.2124878 C111.16792,40.3248955 115.281991,41.1665584 115.281991,43.8092623 C115.281991,46.4519662 119.385975,47.7586038 121.006721,49.6403637 C121.516955,50.2327696 122.030356,50.4730956 122.494361,50.7012335 L122.655991,50.7818001 C123.585868,51.255277 124.280156,51.8465875 124.280156,55.5219144 C124.280156,61.1924187 126.259013,66.2331472 128.058814,69.6964935 C129.858615,73.1598398 133.860881,78.9531042 135.84226,78.9531042 C137.163179,78.9531042 139.539962,79.9197693 142.972611,81.8530996 C141.062179,85.7561959 141.062179,89.6508839 142.972611,93.5371637 C145.838259,99.3665834 148.072669,102.034512 148.072669,105.739174 C148.072669,109.443836 145.791183,114.848641 146.931926,118.104304 C147.243038,118.992212 147.287223,119.739529 147.274896,120.470836 L147.26745,120.7628 L147.256968,121.054829 C147.190957,122.810733 147.122628,124.665774 149.960737,128.342154 C154.296736,133.958846 169.401278,150.307791 172.702455,153.749276 C175.931866,157.115946 177.954553,165.041831 178.040969,170.993425 L178.043854,171.387201 C178.043854,177.378059 180.490944,179.882868 184.090547,183.072947 C186.490281,185.199667 191.482817,187.714005 199.068153,190.615962 L194.066371,204.811562 L200.260175,216.350164 C203.012976,223.221362 205.489769,226.656961 207.690554,226.656961 C210.99173,226.656961 214.782157,225.185523 211.236355,222.446124 C207.690554,219.706726 204.531445,216.415748 204.531445,214.217839 C204.531445,212.01993 206.621265,208.192508 208.92881,210.106219 C211.236355,212.01993 216.949315,215.146107 218.350655,220.901534 C219.751995,226.656961 217.992544,230.018568 220.347165,231.967594 C221.151909,232.633717 221.834206,232.428869 222.435166,232.220494 L222.567391,232.174483 L222.697038,232.130471 C223.724173,231.792013 224.513494,231.848559 225.295987,237.173964 C226.583841,245.938694 227.132776,247.573252 227.132776,252.312126 L227.132776,271.681304 C227.132776,274.273558 228.229806,280.724346 229.800954,284.424804 C231.372102,288.125262 232.025276,292.676632 234.281543,298.059575 C236.537809,303.442518 239.205987,309.050802 242.568529,310.199365 C243.43072,310.493868 244.097867,310.573384 244.65488,310.695678 L244.818765,310.733907 C246.319102,311.107501 247.022552,312.018559 248.793017,319.125532 C251.259021,329.024531 248.194064,331.295592 252.788978,338.518254 C253.898096,340.261655 255.15126,342.037144 256.414309,343.786223 L256.95583,344.534041 C260.745237,349.755058 264.451118,354.663169 264.451118,357.678908 C264.451118,359.645521 262.975834,365.159036 261.556153,370.822498 L261.30651,371.822797 C259.815852,377.825636 258.488489,383.772561 259.141663,385.631198 C260.44801,389.348473 262.597516,388.14946 262.597516,392.677288 C262.597516,397.205115 263.221268,403.268283 264.451118,405.727688 C265.680968,408.187092 279.67503,417.980147 283.78658,415.885659 C287.898129,413.791172 287.125585,412.256671 289.262481,412.256671 C289.48981,412.256671 289.713125,412.254311 289.936295,412.254714 L290.204277,412.256851 C291.993666,412.284307 293.872885,412.619692 297.823515,415.885659 C302.465505,419.723172 302.879939,424.391416 306.843536,424.391416 C307.56419,424.391416 308.353012,424.377879 309.16139,424.374963 L309.648375,424.374682 C313.149678,424.384565 316.83281,424.680154 316.83281,427.182105 C316.83281,430.382274 314.275596,432.982096 316.83281,436.321841 C319.390024,439.661586 321.666466,448.776939 322.892953,450.994187 C323.584246,452.243908 327.163773,454.885579 330.686086,457.597758 L331.366319,458.123222 C333.852086,460.050547 336.21333,461.970447 337.397282,463.410607 C340.35716,467.011007 337.728492,485.818516 334.893869,488.842953 C332.059245,491.867391 326.348807,495.729286 321.590808,498.413191 C320.135421,499.23415 319.470734,500.343515 318.924334,501.488038 L318.800035,501.752668 C318.677224,502.017691 318.557958,502.283549 318.433973,502.54713 L318.308108,502.809836 C317.262372,504.947186 315.718197,506.863453 309.174619,506.863453 C297.823515,506.863453 297.793252,510.31755 296.059021,505.18265 C294.324789,500.047749 290.460387,493.517924 290.460387,484.475723 C290.460387,475.433522 295.695025,475.476404 283.78658,461.085734 C277.149086,453.064704 271.455944,448.810431 265.946728,444.458198 L264.976268,443.688353 C260.939349,440.469874 256.977687,437.075521 252.788978,431.968905 C242.568529,419.508762 232.169866,409.337337 218.350655,399.848659 C204.531445,390.359982 201.452196,385.55132 200.260175,381.795368 C199.068153,378.039415 195.409706,377.847708 191.297317,374.418835 C187.184927,370.989963 188.268506,371.054706 185.174126,366.270428 C182.079746,361.48615 184.111562,361.494559 176.370148,359.586733 C168.628734,357.678908 166.814642,352.371639 168.628734,347.774864 C169.119029,346.532493 169.737784,345.177234 170.379746,343.79504 L170.766866,342.963179 C172.384455,339.489356 174.015528,335.954632 174.015528,333.702025 C174.015528,330.368165 176.59796,323.866087 178.043854,321.49581 C179.489747,319.125532 180.037842,277.589761 176.370148,271.681304 C174.875903,269.274155 172.907815,267.925431 171.014728,266.701299 L170.500703,266.369832 C167.944,264.720927 165.619538,263.145838 164.919008,259.276655 C163.658055,252.312126 166.761682,247.342867 160.529209,246.166557 C154.296736,244.990247 152.989547,245.485491 149.960737,243.039539 C146.931926,240.593588 124.515534,221.416117 121.006721,213.11384 C120.647865,212.264743 120.261927,211.409393 119.862353,210.557951 L119.594098,209.991013 L119.322688,209.425902 C118.550059,207.827973 117.7501,206.260097 117.013426,204.790747 L116.756199,204.276356 C114.382692,199.515634 112.811592,195.91146 115.281991,195.91146 C119.164047,195.91146 118.240189,197.063386 124.280156,195.91146 C130.320124,194.759534 136.007865,192.550694 132.033339,190.615962 C128.058814,188.681231 125.976559,189.515326 124.280156,186.294137 C122.583753,183.072947 122.703124,186.040208 118.992558,183.072947 C115.281991,180.105686 112.235528,180.952394 113.75876,177.378059 C115.281991,173.803724 114.806192,169.367547 112.588595,169.367547 C110.370998,169.367547 108.154241,167.347892 107.066459,169.367547 C105.978676,171.387201 105.978676,176.645703 105.978676,179.859325 C105.978676,181.203203 106.35913,183.950134 106.722291,186.80878 L106.816375,187.556199 C107.282217,191.297473 107.659795,195.037769 107.066459,195.91146 C106.766381,196.353327 106.475707,197.104184 106.144829,197.900496 L106.018769,198.200728 C105.164511,200.209623 104.020227,202.296721 101.810804,200.344274 C98.6071414,197.513226 100.950834,195.91146 95.578331,195.91146 C90.2058281,195.91146 87.1585237,202.210058 83.1310379,200.344274 C79.1035522,198.47849 80.3300397,198.158978 76.2823788,190.615962 C72.2347178,183.072947 63.248322,183.928063 58.9467891,181.309743 C54.6452561,178.691423 57.1974262,172.95029 49.1029449,169.367547 C41.0084636,165.784804 31.4849016,167.965896 30.3332306,158.156025 C29.1815597,148.346153 31.4042005,149.223131 26.60333,144.509482 C21.8024594,139.795833 18.5601275,138.62709 15.1194055,133.484622 C11.6786835,128.342154 14.4485782,125.93404 8.33883781,123.515835 C2.22909744,121.097631 -0.250777918,121.095108 0.98915976,118.104304 C2.22909744,115.1135 5.47311066,113.260328 8.33883781,114.889841 C11.204565,116.519355 19.2191859,123.515835 26.60333,123.515835 C33.9874741,123.515835 37.3668297,119.558926 41.0084636,121.537381 C44.6500975,123.515835 49.1029449,125.405163 49.1029449,128.342154 C49.1029449,131.279146 54.6452561,133.214718 54.6452561,136.702449 C54.6452561,140.190179 55.7708674,145.065743 58.9467891,146.611776 C61.0640702,147.642465 63.7630713,148.013748 67.0437923,147.725626 C66.5803218,147.282793 65.4087558,145.334889 63.5290944,141.881913 C60.7096022,136.702449 60.0143964,132.519358 63.5290944,131.279146 C67.0437923,130.038933 70.4685422,137.115292 72.2347178,135.299957 C74.0008935,133.484622 73.5368625,122.725463 73.5368625,120.414883 C73.5368625,119.323777 72.0889479,118.534354 70.5605937,117.767359 L70.0200612,117.497131 C68.4917069,116.731547 67.0437923,115.955537 67.0437923,114.889841 C67.0437923,112.633075 66.3485865,123.515835 63.5290944,123.515835 C60.7096022,123.515835 52.0266759,121.318767 54.6452561,118.104304 C57.2638364,114.889841 57.89011,112.712953 60.7096022,108.646737 C63.4116155,104.749947 63.5241994,94.4391527 63.5288904,89.1849402 L63.5290944,88.5292272 C63.5290944,83.5280173 61.3476447,84.2040383 65.1826248,78.9531042 C69.0176049,73.7021701 66.8361553,69.9546259 65.1826248,67.9433794 C64.5002154,67.1133412 63.5367495,64.319051 62.4443219,61.3231682 L62.1900032,60.6290344 C62.1472583,60.5130165 62.1043399,60.3969009 62.0612567,60.2807879 L61.800849,59.5849443 C60.4021987,55.8825059 58.8525044,52.3881703 57.4353261,52.3881703 C56.7949821,52.3881703 56.2148143,52.5505798 55.6700868,52.7303574 L55.4387299,52.8080453 C53.718745,53.3923375 52.328409,53.9419958 50.4462807,49.6403637 C47.8949513,43.8092623 47.4519363,38.809734 43.3017178,35.0798471 C39.1514993,31.3499603 36.9221334,32.1537862 35.0744161,26.3605218 C33.2266988,20.5672575 33.7478929,19.0041692 31.4647263,17.5075058 C29.1815597,16.0108425 26.60333,18.6291625 26.60333,16.0108425 C26.60333,14.9724052 22.6534156,9.94445114 14.753587,0.926980368 L88.7639374,0.926980368 Z M340,1 L340,230.600356 C335.157859,225.744379 332.736788,220.480909 332.736788,214.809948 C332.736788,206.303506 337.374585,204.084251 333.532039,200.344274 C329.689493,196.604297 327.84766,195.91146 322.892953,195.91146 C317.938246,195.91146 306.853624,194.038949 297.823515,177.378059 C288.793406,160.717169 293.226078,152.306425 294.324789,150.240525 C294.728727,149.481003 294.687145,149.549643 294.527632,149.55622 L294.487252,149.556151 C294.198143,149.541308 293.662331,149.167995 294.324789,144.509482 C295.4235,136.783167 290.209877,131.279146 283.78658,131.279146 L271.878134,131.279146 C268.18354,131.279146 243.659675,106.085593 238.52339,97.0047141 C235.254846,91.225973 232.421021,89.716739 229.754158,88.6859669 L229.374285,88.5415593 L228.996509,88.4012051 C228.870915,88.3548231 228.745641,88.3087073 228.620659,88.2624484 L228.246559,88.122833 C227.251141,87.747197 226.272551,87.3362025 225.295987,86.6802594 C221.267661,83.9744938 216.554217,75.6141996 214.832595,69.6964935 C213.110973,63.7787875 214.832595,66.0246234 214.832595,61.1924187 C214.832595,56.360214 199.068153,52.8060589 199.068153,46.4519662 C199.068153,40.0978735 194.615306,18.5711458 191.297317,16.0108425 C187.979327,13.4505391 185.174126,17.9455741 185.174126,11.9791004 C185.174126,8.00145129 184.630198,4.34175114 183.542343,1 L340,1 Z" id="img_baja" fill="#EFF1F0"></path>
    </g>
</svg>